<svg width="336" height="448" viewBox="0 0 336 448" fill="none" xmlns="http://www.w3.org/2000/svg">
<path d="M0 40C0 17.9086 17.9086 0 40 0H296C318.091 0 336 17.9086 336 40V448H0V40Z" fill="#8F8888"/>
<path d="M4 40C4 20.1178 20.1178 4 40 4H296C315.882 4 332 20.1177 332 40V448H4V40Z" fill="#3A3839"/>
<path d="M224.764 23H143.236C140.33 23 138 20.7395 138 17.9739V16.0261C138 13.2365 140.355 11 143.236 11H224.764C227.67 11 230 13.2605 230 16.0261V17.9739C230 20.7395 227.67 23 224.764 23Z" fill="#231F20"/>
<path d="M16 62C16 45.4315 29.4315 32 46 32H290C306.569 32 320 45.4315 320 62V128H16V62Z" fill="#C4C4C4"/>
<path d="M39.5 63C45.8513 63 51 57.8513 51 51.5C51 45.1487 45.8513 40 39.5 40C33.1487 40 28 45.1487 28 51.5C28 57.8513 33.1487 63 39.5 63Z" fill="#3A3839"/>
<path d="M320 168H16V448H320V168Z" fill="#E6EFF9"/>
<path d="M32 200C32 194.477 36.4772 190 42 190H294C299.523 190 304 194.477 304 200V448H32V200Z" fill="white"/>
<rect x="16" y="128" width="304" height="40" fill="#22A7F0"/>
<path d="M53.3965 295.176C52.0078 295.176 50.9268 294.751 50.1533 293.901C49.3799 293.046 48.9932 291.821 48.9932 290.228C48.9932 288.61 49.3828 287.365 50.1621 286.492C50.9473 285.613 52.0635 285.174 53.5107 285.174C53.9795 285.174 54.4424 285.224 54.8994 285.323C55.3623 285.417 55.7432 285.54 56.042 285.692L55.5586 287.011C54.7441 286.706 54.0498 286.554 53.4756 286.554C52.5029 286.554 51.7852 286.861 51.3223 287.477C50.8594 288.086 50.6279 288.997 50.6279 290.21C50.6279 291.376 50.8594 292.27 51.3223 292.891C51.7852 293.506 52.4707 293.813 53.3789 293.813C54.2285 293.813 55.0635 293.626 55.8838 293.251V294.657C55.2158 295.003 54.3867 295.176 53.3965 295.176ZM66.5625 290.157C66.5625 291.733 66.1641 292.964 65.3672 293.849C64.5703 294.733 63.4688 295.176 62.0625 295.176C61.1895 295.176 60.416 294.974 59.7422 294.569C59.0684 294.159 58.5498 293.573 58.1865 292.812C57.8232 292.05 57.6416 291.165 57.6416 290.157C57.6416 288.587 58.0342 287.365 58.8193 286.492C59.6045 285.613 60.7061 285.174 62.124 285.174C63.4834 285.174 64.5615 285.622 65.3584 286.519C66.1611 287.409 66.5625 288.622 66.5625 290.157ZM59.2764 290.157C59.2764 291.37 59.5137 292.293 59.9883 292.926C60.4688 293.553 61.1748 293.866 62.1064 293.866C63.0264 293.866 63.7266 293.553 64.207 292.926C64.6875 292.293 64.9277 291.37 64.9277 290.157C64.9277 288.944 64.6846 288.033 64.1982 287.424C63.7178 286.809 63.0117 286.501 62.0801 286.501C60.2109 286.501 59.2764 287.72 59.2764 290.157ZM75.6504 295V288.83C75.6504 288.045 75.4746 287.462 75.123 287.081C74.7773 286.694 74.2324 286.501 73.4883 286.501C72.498 286.501 71.7773 286.776 71.3262 287.327C70.8809 287.872 70.6582 288.763 70.6582 289.999V295H69.0762V285.35H70.3506L70.5879 286.668H70.6758C70.9746 286.193 71.3936 285.827 71.9326 285.569C72.4717 285.306 73.0664 285.174 73.7168 285.174C74.9004 285.174 75.7793 285.461 76.3535 286.035C76.9277 286.609 77.2148 287.503 77.2148 288.716V295H75.6504ZM84.6504 286.58H82.2158V295H80.6338V286.58H78.9463V285.842L80.6338 285.297V284.743C80.6338 283.571 80.8887 282.692 81.3984 282.106C81.9141 281.521 82.7051 281.228 83.7715 281.228C84.3867 281.228 85.0107 281.336 85.6436 281.553L85.2217 282.792C84.6768 282.616 84.1992 282.528 83.7891 282.528C83.2559 282.528 82.8604 282.704 82.6025 283.056C82.3447 283.407 82.2158 283.964 82.2158 284.726V285.35H84.6504V286.58ZM87.9902 295H86.4082V285.35H87.9902V295ZM86.2852 282.739C86.2852 282.388 86.373 282.133 86.5488 281.975C86.7305 281.816 86.9531 281.737 87.2168 281.737C87.4629 281.737 87.6768 281.816 87.8584 281.975C88.0459 282.133 88.1396 282.388 88.1396 282.739C88.1396 283.085 88.0459 283.34 87.8584 283.504C87.6768 283.668 87.4629 283.75 87.2168 283.75C86.9531 283.75 86.7305 283.668 86.5488 283.504C86.373 283.34 86.2852 283.085 86.2852 282.739ZM94.7227 293.884C95.6953 293.884 96.4014 293.623 96.8408 293.102C97.2861 292.574 97.5088 291.73 97.5088 290.57V290.192C97.5088 288.903 97.2861 287.966 96.8408 287.38C96.3955 286.794 95.6777 286.501 94.6875 286.501C93.8789 286.501 93.252 286.823 92.8066 287.468C92.3672 288.106 92.1475 289.021 92.1475 290.21C92.1475 291.405 92.3613 292.316 92.7891 292.943C93.2227 293.57 93.8672 293.884 94.7227 293.884ZM97.4912 294.912L97.5439 293.726H97.4736C96.8232 294.692 95.8271 295.176 94.4854 295.176C93.2373 295.176 92.2617 294.742 91.5586 293.875C90.8613 293.002 90.5127 291.774 90.5127 290.192C90.5127 288.64 90.8643 287.415 91.5674 286.519C92.2764 285.622 93.2432 285.174 94.4678 285.174C95.7744 285.174 96.7822 285.66 97.4912 286.633H97.5879L97.7988 285.35H99.0557V295.158C99.0557 296.541 98.7041 297.581 98.001 298.278C97.3037 298.976 96.2168 299.324 94.7402 299.324C93.334 299.324 92.1768 299.119 91.2686 298.709V297.25C92.2061 297.754 93.3926 298.006 94.8281 298.006C95.6484 298.006 96.2959 297.766 96.7705 297.285C97.251 296.805 97.4912 296.14 97.4912 295.29V294.912ZM103.617 285.35V291.563C103.617 292.343 103.79 292.923 104.136 293.304C104.487 293.679 105.029 293.866 105.762 293.866C106.752 293.866 107.473 293.591 107.924 293.04C108.375 292.489 108.601 291.602 108.601 290.377V285.35H110.191V295H108.891L108.662 293.726H108.583C108.296 294.188 107.889 294.546 107.361 294.798C106.834 295.05 106.222 295.176 105.524 295.176C104.364 295.176 103.488 294.897 102.896 294.341C102.311 293.784 102.018 292.894 102.018 291.669V285.35H103.617ZM117.75 285.174C118.178 285.174 118.556 285.209 118.884 285.279L118.69 286.738C118.333 286.656 117.984 286.615 117.645 286.615C117.135 286.615 116.66 286.756 116.221 287.037C115.787 287.318 115.447 287.708 115.201 288.206C114.955 288.698 114.832 289.246 114.832 289.85V295H113.25V285.35H114.551L114.727 287.116H114.797C115.166 286.478 115.603 285.994 116.106 285.666C116.61 285.338 117.158 285.174 117.75 285.174ZM124.614 295.176C123.167 295.176 122.03 294.739 121.204 293.866C120.384 292.987 119.974 291.78 119.974 290.245C119.974 288.698 120.357 287.468 121.125 286.554C121.893 285.634 122.93 285.174 124.236 285.174C125.449 285.174 126.416 285.566 127.137 286.352C127.857 287.131 128.218 288.188 128.218 289.524V290.482H121.608C121.638 291.578 121.916 292.41 122.443 292.979C122.971 293.547 123.718 293.831 124.685 293.831C125.2 293.831 125.689 293.787 126.152 293.699C126.615 293.605 127.157 293.427 127.778 293.163V294.552C127.245 294.78 126.744 294.941 126.275 295.035C125.807 295.129 125.253 295.176 124.614 295.176ZM124.219 286.466C123.463 286.466 122.865 286.709 122.426 287.195C121.986 287.682 121.726 288.358 121.644 289.226H126.557C126.545 288.323 126.337 287.638 125.933 287.169C125.528 286.7 124.957 286.466 124.219 286.466ZM133.834 285.35H135.53L137.613 290.843C138.053 292.038 138.322 292.914 138.422 293.471H138.492C138.545 293.254 138.665 292.85 138.853 292.258C139.04 291.66 139.198 291.183 139.327 290.825L141.287 285.35H142.992L138.835 296.336C138.431 297.402 137.95 298.167 137.394 298.63C136.837 299.093 136.148 299.324 135.328 299.324C134.889 299.324 134.452 299.274 134.019 299.175V297.918C134.312 297.988 134.663 298.023 135.073 298.023C135.577 298.023 136.005 297.883 136.356 297.602C136.708 297.326 136.995 296.898 137.218 296.318L137.719 295.035L133.834 285.35ZM152.906 290.157C152.906 291.733 152.508 292.964 151.711 293.849C150.914 294.733 149.812 295.176 148.406 295.176C147.533 295.176 146.76 294.974 146.086 294.569C145.412 294.159 144.894 293.573 144.53 292.812C144.167 292.05 143.985 291.165 143.985 290.157C143.985 288.587 144.378 287.365 145.163 286.492C145.948 285.613 147.05 285.174 148.468 285.174C149.827 285.174 150.905 285.622 151.702 286.519C152.505 287.409 152.906 288.622 152.906 290.157ZM145.62 290.157C145.62 291.37 145.857 292.293 146.332 292.926C146.812 293.553 147.519 293.866 148.45 293.866C149.37 293.866 150.07 293.553 150.551 292.926C151.031 292.293 151.271 291.37 151.271 290.157C151.271 288.944 151.028 288.033 150.542 287.424C150.062 286.809 149.355 286.501 148.424 286.501C146.555 286.501 145.62 287.72 145.62 290.157ZM156.914 285.35V291.563C156.914 292.343 157.087 292.923 157.433 293.304C157.784 293.679 158.326 293.866 159.059 293.866C160.049 293.866 160.77 293.591 161.221 293.04C161.672 292.489 161.897 291.602 161.897 290.377V285.35H163.488V295H162.188L161.959 293.726H161.88C161.593 294.188 161.186 294.546 160.658 294.798C160.131 295.05 159.519 295.176 158.821 295.176C157.661 295.176 156.785 294.897 156.193 294.341C155.607 293.784 155.314 292.894 155.314 291.669V285.35H156.914ZM171.047 285.174C171.475 285.174 171.853 285.209 172.181 285.279L171.987 286.738C171.63 286.656 171.281 286.615 170.941 286.615C170.432 286.615 169.957 286.756 169.518 287.037C169.084 287.318 168.744 287.708 168.498 288.206C168.252 288.698 168.129 289.246 168.129 289.85V295H166.547V285.35H167.848L168.023 287.116H168.094C168.463 286.478 168.899 285.994 169.403 285.666C169.907 285.338 170.455 285.174 171.047 285.174ZM185.232 295V288.83C185.232 288.045 185.057 287.462 184.705 287.081C184.359 286.694 183.814 286.501 183.07 286.501C182.08 286.501 181.359 286.776 180.908 287.327C180.463 287.872 180.24 288.763 180.24 289.999V295H178.658V285.35H179.933L180.17 286.668H180.258C180.557 286.193 180.976 285.827 181.515 285.569C182.054 285.306 182.648 285.174 183.299 285.174C184.482 285.174 185.361 285.461 185.936 286.035C186.51 286.609 186.797 287.503 186.797 288.716V295H185.232ZM193.89 295.176C192.442 295.176 191.306 294.739 190.479 293.866C189.659 292.987 189.249 291.78 189.249 290.245C189.249 288.698 189.633 287.468 190.4 286.554C191.168 285.634 192.205 285.174 193.512 285.174C194.725 285.174 195.691 285.566 196.412 286.352C197.133 287.131 197.493 288.188 197.493 289.524V290.482H190.884C190.913 291.578 191.191 292.41 191.719 292.979C192.246 293.547 192.993 293.831 193.96 293.831C194.476 293.831 194.965 293.787 195.428 293.699C195.891 293.605 196.433 293.427 197.054 293.163V294.552C196.521 294.78 196.02 294.941 195.551 295.035C195.082 295.129 194.528 295.176 193.89 295.176ZM193.494 286.466C192.738 286.466 192.141 286.709 191.701 287.195C191.262 287.682 191.001 288.358 190.919 289.226H195.832C195.82 288.323 195.612 287.638 195.208 287.169C194.804 286.7 194.232 286.466 193.494 286.466ZM207.653 295L206.001 289.568C205.849 289.117 205.626 288.265 205.333 287.011H205.263C205.017 288.153 204.8 289.012 204.612 289.586L202.881 295H201.088L198.442 285.35H200.077C200.687 287.723 201.149 289.527 201.466 290.764C201.788 292 201.979 292.873 202.037 293.383H202.107L202.23 292.838C202.412 292 202.588 291.317 202.758 290.79L204.472 285.35H206.194L207.855 290.79C207.914 290.995 207.976 291.215 208.04 291.449C208.11 291.678 208.175 291.906 208.233 292.135C208.292 292.357 208.345 292.577 208.392 292.794C208.438 293.005 208.474 293.195 208.497 293.365H208.576C208.629 292.92 208.843 291.965 209.218 290.5L210.571 285.35H212.188L209.508 295H207.653ZM222.015 295.176C220.761 295.176 219.788 294.742 219.097 293.875C218.405 293.008 218.06 291.78 218.06 290.192C218.06 288.616 218.405 287.386 219.097 286.501C219.794 285.616 220.772 285.174 222.032 285.174C223.327 285.174 224.323 285.648 225.021 286.598H225.135C225.117 286.48 225.094 286.246 225.064 285.895C225.035 285.537 225.021 285.297 225.021 285.174V281.324H226.603V295H225.328L225.091 293.708H225.021C224.347 294.687 223.345 295.176 222.015 295.176ZM222.27 293.866C223.23 293.866 223.931 293.605 224.37 293.084C224.815 292.557 225.038 291.695 225.038 290.5V290.21C225.038 288.868 224.812 287.913 224.361 287.345C223.916 286.771 223.213 286.483 222.252 286.483C221.438 286.483 220.808 286.809 220.362 287.459C219.917 288.104 219.694 289.026 219.694 290.228C219.694 291.423 219.914 292.328 220.354 292.943C220.799 293.559 221.438 293.866 222.27 293.866ZM233.774 295.176C232.327 295.176 231.19 294.739 230.364 293.866C229.544 292.987 229.134 291.78 229.134 290.245C229.134 288.698 229.518 287.468 230.285 286.554C231.053 285.634 232.09 285.174 233.396 285.174C234.609 285.174 235.576 285.566 236.297 286.352C237.018 287.131 237.378 288.188 237.378 289.524V290.482H230.769C230.798 291.578 231.076 292.41 231.604 292.979C232.131 293.547 232.878 293.831 233.845 293.831C234.36 293.831 234.85 293.787 235.312 293.699C235.775 293.605 236.317 293.427 236.938 293.163V294.552C236.405 294.78 235.904 294.941 235.436 295.035C234.967 295.129 234.413 295.176 233.774 295.176ZM233.379 286.466C232.623 286.466 232.025 286.709 231.586 287.195C231.146 287.682 230.886 288.358 230.804 289.226H235.717C235.705 288.323 235.497 287.638 235.093 287.169C234.688 286.7 234.117 286.466 233.379 286.466ZM241.781 295L238.125 285.35H239.821L241.869 291.036C242.273 292.179 242.531 293.031 242.643 293.594H242.713C242.73 293.518 242.751 293.433 242.774 293.339C242.804 293.239 242.836 293.134 242.871 293.022C242.906 292.905 243.123 292.243 243.521 291.036L245.578 285.35H247.266L243.601 295H241.781ZM250.377 295H248.795V285.35H250.377V295ZM248.672 282.739C248.672 282.388 248.76 282.133 248.936 281.975C249.117 281.816 249.34 281.737 249.604 281.737C249.85 281.737 250.063 281.816 250.245 281.975C250.433 282.133 250.526 282.388 250.526 282.739C250.526 283.085 250.433 283.34 250.245 283.504C250.063 283.668 249.85 283.75 249.604 283.75C249.34 283.75 249.117 283.668 248.936 283.504C248.76 283.34 248.672 283.085 248.672 282.739ZM257.303 295.176C255.914 295.176 254.833 294.751 254.06 293.901C253.286 293.046 252.899 291.821 252.899 290.228C252.899 288.61 253.289 287.365 254.068 286.492C254.854 285.613 255.97 285.174 257.417 285.174C257.886 285.174 258.349 285.224 258.806 285.323C259.269 285.417 259.649 285.54 259.948 285.692L259.465 287.011C258.65 286.706 257.956 286.554 257.382 286.554C256.409 286.554 255.691 286.861 255.229 287.477C254.766 288.086 254.534 288.997 254.534 290.21C254.534 291.376 254.766 292.27 255.229 292.891C255.691 293.506 256.377 293.813 257.285 293.813C258.135 293.813 258.97 293.626 259.79 293.251V294.657C259.122 295.003 258.293 295.176 257.303 295.176ZM266.188 295.176C264.741 295.176 263.604 294.739 262.778 293.866C261.958 292.987 261.548 291.78 261.548 290.245C261.548 288.698 261.932 287.468 262.699 286.554C263.467 285.634 264.504 285.174 265.811 285.174C267.023 285.174 267.99 285.566 268.711 286.352C269.432 287.131 269.792 288.188 269.792 289.524V290.482H263.183C263.212 291.578 263.49 292.41 264.018 292.979C264.545 293.547 265.292 293.831 266.259 293.831C266.774 293.831 267.264 293.787 267.727 293.699C268.189 293.605 268.731 293.427 269.353 293.163V294.552C268.819 294.78 268.318 294.941 267.85 295.035C267.381 295.129 266.827 295.176 266.188 295.176ZM265.793 286.466C265.037 286.466 264.439 286.709 264 287.195C263.561 287.682 263.3 288.358 263.218 289.226H268.131C268.119 288.323 267.911 287.638 267.507 287.169C267.103 286.7 266.531 286.466 265.793 286.466Z" fill="#22A7F0"/>
<path d="M296.5 134.516C289.811 134.516 284.391 139.936 284.391 146.625C284.391 153.314 289.811 158.734 296.5 158.734C303.189 158.734 308.609 153.314 308.609 146.625C308.609 139.936 303.189 134.516 296.5 134.516ZM296.5 139.203C298.844 139.203 300.797 141.156 300.797 143.5C300.797 145.893 298.844 147.797 296.5 147.797C294.107 147.797 292.203 145.893 292.203 143.5C292.203 141.156 294.107 139.203 296.5 139.203ZM296.5 156C293.619 156 291.031 154.73 289.322 152.68C290.25 150.971 292.057 149.75 294.156 149.75C294.254 149.75 294.352 149.799 294.498 149.848C295.133 150.043 295.768 150.141 296.5 150.141C297.184 150.141 297.867 150.043 298.453 149.848C298.6 149.799 298.697 149.75 298.844 149.75C300.895 149.75 302.701 150.971 303.629 152.68C301.92 154.73 299.332 156 296.5 156Z" fill="#FEE255"/>
<rect x="65.5" y="320.5" width="202" height="37" rx="4.5" stroke="#C4C4C4"/>
<path d="M84.148 332.148C85.828 332.148 87.052 332.478 87.82 333.138C88.588 333.798 88.972 334.728 88.972 335.928C88.972 336.636 88.81 337.302 88.486 337.926C88.174 338.538 87.64 339.036 86.884 339.42C86.14 339.804 85.126 339.996 83.842 339.996H82.366V345H80.746V332.148H84.148ZM84.004 333.534H82.366V338.61H83.662C84.886 338.61 85.798 338.412 86.398 338.016C86.998 337.62 87.298 336.948 87.298 336C87.298 335.172 87.028 334.554 86.488 334.146C85.96 333.738 85.132 333.534 84.004 333.534ZM95.0824 335.19C96.2584 335.19 97.1284 335.448 97.6924 335.964C98.2564 336.48 98.5384 337.302 98.5384 338.43V345H97.3864L97.0804 343.632H97.0084C96.5884 344.16 96.1444 344.55 95.6764 344.802C95.2084 345.054 94.5724 345.18 93.7684 345.18C92.8924 345.18 92.1664 344.952 91.5904 344.496C91.0144 344.028 90.7264 343.302 90.7264 342.318C90.7264 341.358 91.1044 340.62 91.8604 340.104C92.6164 339.576 93.7804 339.288 95.3524 339.24L96.9904 339.186V338.61C96.9904 337.806 96.8164 337.248 96.4684 336.936C96.1204 336.624 95.6284 336.468 94.9924 336.468C94.4884 336.468 94.0084 336.546 93.5524 336.702C93.0964 336.846 92.6704 337.014 92.2744 337.206L91.7884 336.018C92.2084 335.79 92.7064 335.598 93.2824 335.442C93.8584 335.274 94.4584 335.19 95.0824 335.19ZM96.9724 340.284L95.5504 340.338C94.3504 340.386 93.5164 340.578 93.0484 340.914C92.5924 341.25 92.3644 341.724 92.3644 342.336C92.3644 342.876 92.5264 343.272 92.8504 343.524C93.1864 343.776 93.6124 343.902 94.1284 343.902C94.9324 343.902 95.6044 343.68 96.1444 343.236C96.6964 342.78 96.9724 342.084 96.9724 341.148V340.284ZM102.328 331.734C102.568 331.734 102.778 331.818 102.958 331.986C103.15 332.142 103.246 332.394 103.246 332.742C103.246 333.09 103.15 333.348 102.958 333.516C102.778 333.672 102.568 333.75 102.328 333.75C102.064 333.75 101.842 333.672 101.662 333.516C101.482 333.348 101.392 333.09 101.392 332.742C101.392 332.394 101.482 332.142 101.662 331.986C101.842 331.818 102.064 331.734 102.328 331.734ZM103.102 335.352V345H101.518V335.352H103.102ZM110.659 335.172C110.839 335.172 111.031 335.184 111.235 335.208C111.439 335.22 111.625 335.244 111.793 335.28L111.595 336.738C111.439 336.702 111.265 336.672 111.073 336.648C110.881 336.624 110.707 336.612 110.551 336.612C110.059 336.612 109.597 336.75 109.165 337.026C108.733 337.29 108.385 337.668 108.121 338.16C107.869 338.64 107.743 339.204 107.743 339.852V345H106.159V335.352H107.455L107.635 337.116H107.707C108.007 336.588 108.403 336.132 108.895 335.748C109.399 335.364 109.987 335.172 110.659 335.172ZM114.404 331.734C114.644 331.734 114.854 331.818 115.034 331.986C115.226 332.142 115.322 332.394 115.322 332.742C115.322 333.09 115.226 333.348 115.034 333.516C114.854 333.672 114.644 333.75 114.404 333.75C114.14 333.75 113.918 333.672 113.738 333.516C113.558 333.348 113.468 333.09 113.468 332.742C113.468 332.394 113.558 332.142 113.738 331.986C113.918 331.818 114.14 331.734 114.404 331.734ZM115.178 335.352V345H113.594V335.352H115.178ZM122.879 335.172C124.031 335.172 124.901 335.454 125.489 336.018C126.077 336.582 126.371 337.482 126.371 338.718V345H124.805V338.826C124.805 337.278 124.085 336.504 122.645 336.504C121.577 336.504 120.839 336.804 120.431 337.404C120.023 338.004 119.819 338.868 119.819 339.996V345H118.235V335.352H119.513L119.747 336.666H119.837C120.149 336.162 120.581 335.79 121.133 335.55C121.685 335.298 122.267 335.172 122.879 335.172ZM132.782 335.172C133.418 335.172 133.988 335.292 134.492 335.532C135.008 335.772 135.446 336.138 135.806 336.63H135.896L136.112 335.352H137.372V345.162C137.372 346.542 137.018 347.58 136.31 348.276C135.614 348.972 134.528 349.32 133.052 349.32C131.636 349.32 130.478 349.116 129.578 348.708V347.25C130.526 347.754 131.714 348.006 133.142 348.006C133.97 348.006 134.618 347.76 135.086 347.268C135.566 346.788 135.806 346.128 135.806 345.288V344.91C135.806 344.766 135.812 344.562 135.824 344.298C135.836 344.022 135.848 343.83 135.86 343.722H135.788C135.14 344.694 134.144 345.18 132.8 345.18C131.552 345.18 130.574 344.742 129.866 343.866C129.17 342.99 128.822 341.766 128.822 340.194C128.822 338.658 129.17 337.44 129.866 336.54C130.574 335.628 131.546 335.172 132.782 335.172ZM132.998 336.504C132.194 336.504 131.57 336.828 131.126 337.476C130.682 338.112 130.46 339.024 130.46 340.212C130.46 341.4 130.676 342.312 131.108 342.948C131.54 343.572 132.182 343.884 133.034 343.884C134.006 343.884 134.714 343.626 135.158 343.11C135.602 342.582 135.824 341.736 135.824 340.572V340.194C135.824 338.886 135.596 337.944 135.14 337.368C134.684 336.792 133.97 336.504 132.998 336.504ZM150.836 333.39C149.456 333.39 148.37 333.852 147.578 334.776C146.786 335.7 146.39 336.966 146.39 338.574C146.39 340.17 146.756 341.436 147.488 342.372C148.232 343.296 149.342 343.758 150.818 343.758C151.37 343.758 151.898 343.71 152.402 343.614C152.906 343.518 153.404 343.398 153.896 343.254V344.658C153.416 344.838 152.918 344.97 152.402 345.054C151.898 345.138 151.292 345.18 150.584 345.18C149.276 345.18 148.184 344.91 147.308 344.37C146.432 343.83 145.772 343.062 145.328 342.066C144.896 341.07 144.68 339.9 144.68 338.556C144.68 337.26 144.914 336.12 145.382 335.136C145.862 334.14 146.564 333.366 147.488 332.814C148.412 332.25 149.534 331.968 150.854 331.968C152.21 331.968 153.392 332.22 154.4 332.724L153.752 334.092C153.356 333.912 152.912 333.75 152.42 333.606C151.94 333.462 151.412 333.39 150.836 333.39ZM164.873 340.158C164.873 341.754 164.465 342.99 163.649 343.866C162.845 344.742 161.753 345.18 160.373 345.18C159.521 345.18 158.759 344.988 158.087 344.604C157.427 344.208 156.905 343.638 156.521 342.894C156.137 342.138 155.945 341.226 155.945 340.158C155.945 338.562 156.341 337.332 157.133 336.468C157.937 335.604 159.035 335.172 160.427 335.172C161.291 335.172 162.059 335.37 162.731 335.766C163.403 336.15 163.925 336.714 164.297 337.458C164.681 338.19 164.873 339.09 164.873 340.158ZM157.583 340.158C157.583 341.298 157.805 342.204 158.249 342.876C158.705 343.536 159.425 343.866 160.409 343.866C161.381 343.866 162.095 343.536 162.551 342.876C163.007 342.204 163.235 341.298 163.235 340.158C163.235 339.018 163.007 338.124 162.551 337.476C162.095 336.828 161.375 336.504 160.391 336.504C159.407 336.504 158.693 336.828 158.249 337.476C157.805 338.124 157.583 339.018 157.583 340.158ZM170.804 345.18C169.604 345.18 168.644 344.766 167.924 343.938C167.204 343.098 166.844 341.85 166.844 340.194C166.844 338.538 167.204 337.29 167.924 336.45C168.656 335.598 169.622 335.172 170.822 335.172C171.566 335.172 172.172 335.31 172.64 335.586C173.12 335.862 173.51 336.198 173.81 336.594H173.918C173.894 336.438 173.87 336.21 173.846 335.91C173.822 335.598 173.81 335.352 173.81 335.172V331.32H175.394V345H174.116L173.882 343.704H173.81C173.522 344.112 173.138 344.46 172.658 344.748C172.178 345.036 171.56 345.18 170.804 345.18ZM171.056 343.866C172.076 343.866 172.79 343.59 173.198 343.038C173.618 342.474 173.828 341.628 173.828 340.5V340.212C173.828 339.012 173.63 338.094 173.234 337.458C172.838 336.81 172.106 336.486 171.038 336.486C170.186 336.486 169.544 336.828 169.112 337.512C168.692 338.184 168.482 339.09 168.482 340.23C168.482 341.382 168.692 342.276 169.112 342.912C169.544 343.548 170.192 343.866 171.056 343.866ZM182.184 335.172C183 335.172 183.708 335.352 184.308 335.712C184.908 336.072 185.364 336.582 185.676 337.242C186 337.89 186.162 338.652 186.162 339.528V340.482H179.556C179.58 341.574 179.856 342.408 180.384 342.984C180.924 343.548 181.674 343.83 182.634 343.83C183.246 343.83 183.786 343.776 184.254 343.668C184.734 343.548 185.226 343.38 185.73 343.164V344.55C185.238 344.766 184.752 344.922 184.272 345.018C183.792 345.126 183.222 345.18 182.562 345.18C181.638 345.18 180.828 344.994 180.132 344.622C179.436 344.25 178.89 343.698 178.494 342.966C178.11 342.234 177.918 341.328 177.918 340.248C177.918 339.192 178.092 338.286 178.44 337.53C178.8 336.774 179.298 336.192 179.934 335.784C180.582 335.376 181.332 335.172 182.184 335.172ZM182.166 336.468C181.41 336.468 180.81 336.714 180.366 337.206C179.934 337.686 179.676 338.358 179.592 339.222H184.506C184.494 338.406 184.302 337.746 183.93 337.242C183.558 336.726 182.97 336.468 182.166 336.468ZM192.884 331.32L192.524 334.776L195.98 333.804L196.232 335.46L192.92 335.73L195.062 338.574L193.514 339.42L191.984 336.27L190.598 339.42L188.996 338.574L191.102 335.73L187.826 335.46L188.078 333.804L191.498 334.776L191.12 331.32H192.884Z" fill="#6A6A6A"/>
<line x1="95" y1="227.5" x2="275" y2="227.5" stroke="#C4C4C4" stroke-width="3"/>
<g filter="url(#filter0_d)">
<rect x="168" y="161" width="147" height="86" rx="5" fill="white"/>
</g>
<path d="M296.5 156L291 162H302L296.5 156Z" fill="white"/>
<circle cx="187.5" cy="204.5" r="8.5" fill="#22A7F0"/>
<rect x="186.727" y="199.864" width="1.54545" height="10.0455" fill="white"/>
<rect x="192.909" y="203.727" width="1.54546" height="10.8182" transform="rotate(90 192.909 203.727)" fill="white"/>
<circle cx="187.5" cy="180.5" r="8.5" fill="#EFEFEF"/>
<circle cx="187.5" cy="230.5" r="8.5" fill="#EFEFEF"/>
<path d="M215.81 210L214.262 206.022H209.168L207.638 210H206L211.022 197.094H212.48L217.484 210H215.81ZM213.776 204.582L212.336 200.694C212.3 200.598 212.24 200.424 212.156 200.172C212.072 199.92 211.988 199.662 211.904 199.398C211.832 199.122 211.772 198.912 211.724 198.768C211.628 199.14 211.526 199.506 211.418 199.866C211.322 200.214 211.238 200.49 211.166 200.694L209.708 204.582H213.776ZM222.446 210.18C221.246 210.18 220.286 209.766 219.566 208.938C218.846 208.098 218.486 206.85 218.486 205.194C218.486 203.538 218.846 202.29 219.566 201.45C220.298 200.598 221.264 200.172 222.464 200.172C223.208 200.172 223.814 200.31 224.282 200.586C224.762 200.862 225.152 201.198 225.452 201.594H225.56C225.536 201.438 225.512 201.21 225.488 200.91C225.464 200.598 225.452 200.352 225.452 200.172V196.32H227.036V210H225.758L225.524 208.704H225.452C225.164 209.112 224.78 209.46 224.3 209.748C223.82 210.036 223.202 210.18 222.446 210.18ZM222.698 208.866C223.718 208.866 224.432 208.59 224.84 208.038C225.26 207.474 225.47 206.628 225.47 205.5V205.212C225.47 204.012 225.272 203.094 224.876 202.458C224.48 201.81 223.748 201.486 222.68 201.486C221.828 201.486 221.186 201.828 220.754 202.512C220.334 203.184 220.124 204.09 220.124 205.23C220.124 206.382 220.334 207.276 220.754 207.912C221.186 208.548 221.834 208.866 222.698 208.866ZM233.52 210.18C232.32 210.18 231.36 209.766 230.64 208.938C229.92 208.098 229.56 206.85 229.56 205.194C229.56 203.538 229.92 202.29 230.64 201.45C231.372 200.598 232.338 200.172 233.538 200.172C234.282 200.172 234.888 200.31 235.356 200.586C235.836 200.862 236.226 201.198 236.526 201.594H236.634C236.61 201.438 236.586 201.21 236.562 200.91C236.538 200.598 236.526 200.352 236.526 200.172V196.32H238.11V210H236.832L236.598 208.704H236.526C236.238 209.112 235.854 209.46 235.374 209.748C234.894 210.036 234.276 210.18 233.52 210.18ZM233.772 208.866C234.792 208.866 235.506 208.59 235.914 208.038C236.334 207.474 236.544 206.628 236.544 205.5V205.212C236.544 204.012 236.346 203.094 235.95 202.458C235.554 201.81 234.822 201.486 233.754 201.486C232.902 201.486 232.26 201.828 231.828 202.512C231.408 203.184 231.198 204.09 231.198 205.23C231.198 206.382 231.408 207.276 231.828 207.912C232.26 208.548 232.908 208.866 233.772 208.866ZM256.362 203.448C256.362 205.62 255.768 207.258 254.58 208.362C253.404 209.454 251.76 210 249.648 210H246.066V197.148H250.026C251.31 197.148 252.426 197.388 253.374 197.868C254.334 198.348 255.072 199.056 255.588 199.992C256.104 200.928 256.362 202.08 256.362 203.448ZM254.652 203.502C254.652 201.786 254.226 200.532 253.374 199.74C252.534 198.936 251.34 198.534 249.792 198.534H247.686V208.614H249.432C252.912 208.614 254.652 206.91 254.652 203.502ZM262.725 200.172C263.541 200.172 264.249 200.352 264.849 200.712C265.449 201.072 265.905 201.582 266.217 202.242C266.541 202.89 266.703 203.652 266.703 204.528V205.482H260.097C260.121 206.574 260.397 207.408 260.925 207.984C261.465 208.548 262.215 208.83 263.175 208.83C263.787 208.83 264.327 208.776 264.795 208.668C265.275 208.548 265.767 208.38 266.271 208.164V209.55C265.779 209.766 265.293 209.922 264.813 210.018C264.333 210.126 263.763 210.18 263.103 210.18C262.179 210.18 261.369 209.994 260.673 209.622C259.977 209.25 259.431 208.698 259.035 207.966C258.651 207.234 258.459 206.328 258.459 205.248C258.459 204.192 258.633 203.286 258.981 202.53C259.341 201.774 259.839 201.192 260.475 200.784C261.123 200.376 261.873 200.172 262.725 200.172ZM262.707 201.468C261.951 201.468 261.351 201.714 260.907 202.206C260.475 202.686 260.217 203.358 260.133 204.222H265.047C265.035 203.406 264.843 202.746 264.471 202.242C264.099 201.726 263.511 201.468 262.707 201.468ZM270.931 210L267.277 200.352H268.969L271.021 206.04C271.117 206.304 271.219 206.598 271.327 206.922C271.435 207.246 271.531 207.558 271.615 207.858C271.699 208.158 271.759 208.404 271.795 208.596H271.867C271.903 208.404 271.969 208.158 272.065 207.858C272.161 207.546 272.263 207.234 272.371 206.922C272.479 206.598 272.581 206.304 272.677 206.04L274.729 200.352H276.421L272.749 210H270.931ZM278.758 196.734C278.998 196.734 279.208 196.818 279.388 196.986C279.58 197.142 279.676 197.394 279.676 197.742C279.676 198.09 279.58 198.348 279.388 198.516C279.208 198.672 278.998 198.75 278.758 198.75C278.494 198.75 278.272 198.672 278.092 198.516C277.912 198.348 277.822 198.09 277.822 197.742C277.822 197.394 277.912 197.142 278.092 196.986C278.272 196.818 278.494 196.734 278.758 196.734ZM279.532 200.352V210H277.948V200.352H279.532ZM286.459 210.18C285.595 210.18 284.833 210.006 284.173 209.658C283.513 209.31 282.991 208.77 282.607 208.038C282.235 207.306 282.049 206.37 282.049 205.23C282.049 204.042 282.241 203.076 282.625 202.332C283.021 201.588 283.561 201.042 284.245 200.694C284.929 200.346 285.703 200.172 286.567 200.172C287.047 200.172 287.515 200.226 287.971 200.334C288.439 200.43 288.817 200.55 289.105 200.694L288.619 202.008C288.331 201.9 287.995 201.798 287.611 201.702C287.227 201.606 286.867 201.558 286.531 201.558C284.635 201.558 283.687 202.776 283.687 205.212C283.687 206.376 283.915 207.27 284.371 207.894C284.839 208.506 285.529 208.812 286.441 208.812C286.957 208.812 287.419 208.758 287.827 208.65C288.235 208.542 288.607 208.41 288.943 208.254V209.658C288.619 209.826 288.259 209.952 287.863 210.036C287.479 210.132 287.011 210.18 286.459 210.18ZM294.963 200.172C295.779 200.172 296.487 200.352 297.087 200.712C297.687 201.072 298.143 201.582 298.455 202.242C298.779 202.89 298.941 203.652 298.941 204.528V205.482H292.335C292.359 206.574 292.635 207.408 293.163 207.984C293.703 208.548 294.453 208.83 295.413 208.83C296.025 208.83 296.565 208.776 297.033 208.668C297.513 208.548 298.005 208.38 298.509 208.164V209.55C298.017 209.766 297.531 209.922 297.051 210.018C296.571 210.126 296.001 210.18 295.341 210.18C294.417 210.18 293.607 209.994 292.911 209.622C292.215 209.25 291.669 208.698 291.273 207.966C290.889 207.234 290.697 206.328 290.697 205.248C290.697 204.192 290.871 203.286 291.219 202.53C291.579 201.774 292.077 201.192 292.713 200.784C293.361 200.376 294.111 200.172 294.963 200.172ZM294.945 201.468C294.189 201.468 293.589 201.714 293.145 202.206C292.713 202.686 292.455 203.358 292.371 204.222H297.285C297.273 203.406 297.081 202.746 296.709 202.242C296.337 201.726 295.749 201.468 294.945 201.468Z" fill="#6A6A6A"/>
<rect x="207" y="174" width="95" height="15" fill="#EFEFEF"/>
<rect x="207" y="222" width="95" height="15" fill="#EFEFEF"/>
<circle cx="62" cy="227" r="14" fill="#22A7F0"/>
<path d="M63.249 233H61.7021V224.976C61.7021 224.724 61.7021 224.454 61.7021 224.167C61.708 223.88 61.7139 223.596 61.7197 223.314C61.7314 223.027 61.7402 222.755 61.7461 222.497C61.7578 222.233 61.7666 222.002 61.7725 221.803C61.6729 221.908 61.585 221.999 61.5088 222.075C61.4326 222.151 61.3535 222.225 61.2715 222.295C61.1953 222.365 61.1133 222.441 61.0254 222.523C60.9375 222.6 60.832 222.69 60.709 222.796L59.4082 223.859L58.5645 222.778L61.9307 220.15H63.249V233Z" fill="white"/>
<path d="M294 70H42C36.4772 70 32 74.4772 32 80V96C32 101.523 36.4771 106 42 106H294C299.523 106 304 101.523 304 96V80C304 74.4772 299.523 70 294 70Z" fill="white"/>
<path d="M65.0266 96V87.8875C65.0266 85.8985 64.1737 84.9041 62.4678 84.9041C61.2974 84.9041 60.4368 85.2445 59.886 85.9253C59.3352 86.6061 59.0598 87.6465 59.0598 89.0464V96H57.0059V87.8875C57.0059 86.893 56.7955 86.1471 56.3748 85.6499C55.9617 85.1527 55.3114 84.9041 54.4241 84.9041C53.2613 84.9041 52.4084 85.2598 51.8652 85.9712C51.3298 86.6826 51.062 87.8492 51.062 89.4709V96H48.9966V83.4009H50.6604L50.9702 85.1221H51.085C51.4445 84.5101 51.9494 84.032 52.5996 83.6877C53.2575 83.3435 53.9919 83.1714 54.8027 83.1714C56.7764 83.1714 58.0615 83.8752 58.6582 85.2827H58.7729C59.1784 84.6095 59.7292 84.0894 60.4253 83.7222C61.1291 83.355 61.9246 83.1714 62.812 83.1714C64.2349 83.1714 65.2982 83.5386 66.002 84.2729C66.7134 85.0073 67.0691 86.1816 67.0691 87.7957V96H65.0266ZM69.0083 83.4009H71.2229L73.9424 90.5725C74.5161 92.1331 74.868 93.2767 74.998 94.0034H75.0898C75.1587 93.7204 75.3155 93.1925 75.5603 92.4199C75.8051 91.6396 76.0116 91.0162 76.1799 90.5496L78.7388 83.4009H80.9648L75.5374 97.7441C75.0095 99.1364 74.3822 100.135 73.6555 100.739C72.9288 101.343 72.0299 101.646 70.959 101.646C70.3853 101.646 69.8153 101.58 69.2493 101.45V99.8096C69.6318 99.9014 70.0907 99.9473 70.6262 99.9473C71.2841 99.9473 71.8425 99.7637 72.3015 99.3965C72.7605 99.0369 73.1353 98.4785 73.426 97.7212L74.0801 96.0459L69.0083 83.4009ZM88.0103 96.2295C86.1973 96.2295 84.7859 95.6749 83.7761 94.5657C82.7664 93.4488 82.2615 91.85 82.2615 89.7693C82.2615 87.658 82.7702 86.0324 83.7876 84.8926C84.8127 83.7451 86.2699 83.1714 88.1594 83.1714C88.7714 83.1714 89.3757 83.2364 89.9724 83.3665C90.5767 83.4889 91.074 83.6495 91.4641 83.8484L90.833 85.5696C89.7697 85.1718 88.8632 84.9729 88.1135 84.9729C86.8437 84.9729 85.9066 85.3745 85.3022 86.1777C84.6979 86.9733 84.3958 88.1628 84.3958 89.7463C84.3958 91.2686 84.6979 92.4352 85.3022 93.2461C85.9066 94.0493 86.8016 94.4509 87.9873 94.4509C89.0965 94.4509 90.1866 94.2061 91.2576 93.7166V95.5525C90.3855 96.0038 89.3031 96.2295 88.0103 96.2295ZM100.127 83.1714C100.686 83.1714 101.179 83.2173 101.608 83.3091L101.355 85.2139C100.889 85.1068 100.433 85.0532 99.9897 85.0532C99.3242 85.0532 98.7046 85.2368 98.1309 85.604C97.5648 85.9712 97.1211 86.4799 96.7998 87.1301C96.4785 87.7727 96.3179 88.488 96.3179 89.2759V96H94.2524V83.4009H95.9507L96.1802 85.7073H96.272C96.7539 84.8735 97.3238 84.2424 97.9817 83.814C98.6396 83.3856 99.3548 83.1714 100.127 83.1714ZM114.677 89.6775C114.677 91.7353 114.157 93.3417 113.117 94.4968C112.076 95.6519 110.638 96.2295 108.802 96.2295C107.662 96.2295 106.653 95.9656 105.773 95.4377C104.893 94.9023 104.216 94.1373 103.742 93.1428C103.268 92.1484 103.031 90.9932 103.031 89.6775C103.031 87.6274 103.543 86.0324 104.568 84.8926C105.593 83.7451 107.031 83.1714 108.883 83.1714C110.657 83.1714 112.065 83.7566 113.105 84.927C114.153 86.0898 114.677 87.6733 114.677 89.6775ZM105.165 89.6775C105.165 91.261 105.475 92.4658 106.094 93.292C106.722 94.1105 107.643 94.5198 108.86 94.5198C110.061 94.5198 110.975 94.1105 111.602 93.292C112.229 92.4658 112.543 91.261 112.543 89.6775C112.543 88.094 112.226 86.9045 111.591 86.1089C110.963 85.3057 110.042 84.9041 108.825 84.9041C106.385 84.9041 105.165 86.4952 105.165 89.6775ZM123.765 85.0073H120.587V96H118.521V85.0073H116.318V84.0435L118.521 83.332V82.6091C118.521 81.0792 118.854 79.9317 119.52 79.1667C120.193 78.4018 121.225 78.0193 122.618 78.0193C123.421 78.0193 124.236 78.1608 125.062 78.4438L124.511 80.0618C123.8 79.8323 123.176 79.7175 122.641 79.7175C121.944 79.7175 121.428 79.947 121.092 80.406C120.755 80.865 120.587 81.5917 120.587 82.5862V83.4009H123.765V85.0073ZM130.271 94.5427C130.539 94.5427 130.853 94.516 131.212 94.4624C131.572 94.4089 131.843 94.3477 132.027 94.2788V95.8623C131.836 95.9465 131.537 96.0268 131.132 96.1033C130.734 96.1874 130.329 96.2295 129.916 96.2295C127.452 96.2295 126.221 94.9329 126.221 92.3396V85.0073H124.442V84.0205L126.244 83.1943L127.07 80.5093H128.298V83.4009H131.935V85.0073H128.298V92.2822C128.298 93.009 128.47 93.5674 128.814 93.9575C129.166 94.3477 129.652 94.5427 130.271 94.5427ZM134.241 94.7263C134.241 94.4356 134.28 94.1908 134.356 93.9919C134.433 93.7854 134.536 93.6209 134.666 93.4985C134.796 93.3685 134.949 93.2767 135.125 93.2231C135.301 93.1619 135.492 93.1313 135.699 93.1313C135.898 93.1313 136.085 93.1619 136.261 93.2231C136.445 93.2767 136.601 93.3685 136.731 93.4985C136.861 93.6209 136.965 93.7854 137.041 93.9919C137.118 94.1908 137.156 94.4356 137.156 94.7263C137.156 95.0094 137.118 95.2542 137.041 95.4607C136.965 95.6596 136.861 95.8241 136.731 95.9541C136.601 96.0841 136.445 96.1798 136.261 96.241C136.085 96.3022 135.898 96.3328 135.699 96.3328C135.492 96.3328 135.301 96.3022 135.125 96.241C134.949 96.1798 134.796 96.0841 134.666 95.9541C134.536 95.8241 134.433 95.6596 134.356 95.4607C134.28 95.2542 134.241 95.0094 134.241 94.7263ZM148.642 96L148.24 94.21H148.149C147.521 94.9979 146.894 95.5334 146.267 95.8164C145.647 96.0918 144.863 96.2295 143.915 96.2295C142.675 96.2295 141.704 95.9044 141 95.2542C140.296 94.6039 139.944 93.686 139.944 92.5002C139.944 89.9452 141.96 88.6065 145.991 88.4841L148.126 88.4038V87.658C148.126 86.7017 147.919 85.998 147.506 85.5466C147.093 85.0876 146.431 84.8582 145.521 84.8582C144.855 84.8582 144.224 84.9576 143.628 85.1565C143.039 85.3554 142.484 85.5772 141.964 85.822L141.333 84.2729C141.968 83.9364 142.66 83.6724 143.41 83.4812C144.159 83.29 144.901 83.1943 145.636 83.1943C147.158 83.1943 148.29 83.5309 149.032 84.2041C149.774 84.8773 150.145 85.9482 150.145 87.417V96H148.642ZM144.385 94.5657C145.54 94.5657 146.447 94.2559 147.104 93.6362C147.77 93.009 148.103 92.1216 148.103 90.9741V89.8381L146.244 89.9185C144.798 89.972 143.742 90.2015 143.077 90.6069C142.419 91.0124 142.09 91.6511 142.09 92.5232C142.09 93.1811 142.289 93.686 142.687 94.0378C143.092 94.3897 143.658 94.5657 144.385 94.5657ZM156.124 96H154.058V83.4009H156.124V96ZM153.897 79.9929C153.897 79.5339 154.012 79.2012 154.242 78.9946C154.479 78.7881 154.77 78.6848 155.114 78.6848C155.435 78.6848 155.714 78.7881 155.951 78.9946C156.196 79.2012 156.319 79.5339 156.319 79.9929C156.319 80.4443 156.196 80.777 155.951 80.9912C155.714 81.2054 155.435 81.3125 155.114 81.3125C154.77 81.3125 154.479 81.2054 154.242 80.9912C154.012 80.777 153.897 80.4443 153.897 79.9929ZM167.219 76.4358L161.058 99.8899H159.107L165.292 76.4358H167.219ZM176.181 96.2295C174.491 96.2295 173.19 95.6213 172.28 94.405H172.142L172.188 94.8755C172.249 95.4722 172.28 96.0038 172.28 96.4705V101.646H170.214V83.4009H171.913L172.188 85.1221H172.28C172.769 84.4336 173.335 83.9364 173.978 83.6304C174.621 83.3244 175.363 83.1714 176.204 83.1714C177.841 83.1714 179.111 83.7413 180.014 84.8811C180.924 86.0133 181.379 87.6121 181.379 89.6775C181.379 91.7353 180.924 93.3417 180.014 94.4968C179.103 95.6519 177.826 96.2295 176.181 96.2295ZM175.837 84.9041C174.59 84.9041 173.687 85.2559 173.129 85.9597C172.578 86.6635 172.295 87.7689 172.28 89.2759V89.6775C172.28 91.3834 172.563 92.6188 173.129 93.3838C173.695 94.1411 174.613 94.5198 175.883 94.5198C176.938 94.5198 177.761 94.0914 178.35 93.2346C178.947 92.3778 179.245 91.1845 179.245 89.6545C179.245 88.1169 178.947 86.9427 178.35 86.1318C177.761 85.3133 176.923 84.9041 175.837 84.9041ZM192.452 96L192.051 94.21H191.959C191.331 94.9979 190.704 95.5334 190.077 95.8164C189.457 96.0918 188.673 96.2295 187.725 96.2295C186.485 96.2295 185.514 95.9044 184.81 95.2542C184.106 94.6039 183.754 93.686 183.754 92.5002C183.754 89.9452 185.77 88.6065 189.802 88.4841L191.936 88.4038V87.658C191.936 86.7017 191.729 85.998 191.316 85.5466C190.903 85.0876 190.241 84.8582 189.331 84.8582C188.666 84.8582 188.034 84.9576 187.438 85.1565C186.849 85.3554 186.294 85.5772 185.774 85.822L185.143 84.2729C185.778 83.9364 186.47 83.6724 187.22 83.4812C187.969 83.29 188.711 83.1943 189.446 83.1943C190.968 83.1943 192.1 83.5309 192.842 84.2041C193.584 84.8773 193.955 85.9482 193.955 87.417V96H192.452ZM188.195 94.5657C189.35 94.5657 190.257 94.2559 190.915 93.6362C191.58 93.009 191.913 92.1216 191.913 90.9741V89.8381L190.054 89.9185C188.608 89.972 187.552 90.2015 186.887 90.6069C186.229 91.0124 185.9 91.6511 185.9 92.5232C185.9 93.1811 186.099 93.686 186.497 94.0378C186.902 94.3897 187.468 94.5657 188.195 94.5657ZM199.934 96H197.868V83.4009H199.934V96ZM197.708 79.9929C197.708 79.5339 197.822 79.2012 198.052 78.9946C198.289 78.7881 198.58 78.6848 198.924 78.6848C199.245 78.6848 199.524 78.7881 199.761 78.9946C200.006 79.2012 200.129 79.5339 200.129 79.9929C200.129 80.4443 200.006 80.777 199.761 80.9912C199.524 81.2054 199.245 81.3125 198.924 81.3125C198.58 81.3125 198.289 81.2054 198.052 80.9912C197.822 80.777 197.708 80.4443 197.708 79.9929ZM209.802 83.1714C210.36 83.1714 210.854 83.2173 211.282 83.3091L211.03 85.2139C210.563 85.1068 210.108 85.0532 209.664 85.0532C208.999 85.0532 208.379 85.2368 207.805 85.604C207.239 85.9712 206.795 86.4799 206.474 87.1301C206.153 87.7727 205.992 88.488 205.992 89.2759V96H203.927V83.4009H205.625L205.854 85.7073H205.946C206.428 84.8735 206.998 84.2424 207.656 83.814C208.314 83.3856 209.029 83.1714 209.802 83.1714Z" fill="#3EA2DA"/>
<defs>
<filter id="filter0_d" x="164" y="161" width="155" height="94" filterUnits="userSpaceOnUse" color-interpolation-filters="sRGB">
<feFlood flood-opacity="0" result="BackgroundImageFix"/>
<feColorMatrix in="SourceAlpha" type="matrix" values="0 0 0 0 0 0 0 0 0 0 0 0 0 0 0 0 0 0 127 0" result="hardAlpha"/>
<feOffset dy="4"/>
<feGaussianBlur stdDeviation="2"/>
<feColorMatrix type="matrix" values="0 0 0 0 0 0 0 0 0 0 0 0 0 0 0 0 0 0 0.25 0"/>
<feBlend mode="normal" in2="BackgroundImageFix" result="effect1_dropShadow"/>
<feBlend mode="normal" in="SourceGraphic" in2="effect1_dropShadow" result="shape"/>
</filter>
</defs>
</svg>
