<svg width="288" height="288" viewBox="0 0 288 288" fill="none" xmlns="http://www.w3.org/2000/svg">
<rect width="288" height="288" fill="#40DBB0"/>
<path d="M222.823 97.25L216.07 90.5C214.569 89.25 212.068 88 210.317 88H198.562C194.81 88 189.808 90.25 187.307 92.75L176.302 103.75L173.55 101.25C173.05 100.75 171.549 100.25 170.799 100.25C169.799 100.25 168.548 100.75 168.048 101.25L165.046 104C164.546 104.75 164.046 106 164.046 107C164.046 107.75 164.546 109.25 165.046 109.75L167.798 112.25L164.296 115.75L161.545 113.25C161.045 112.75 159.794 112 158.793 112C157.793 112 156.542 112.75 156.042 113.25L153.041 116C152.541 116.75 152.04 118 152.04 119C152.04 119.75 152.541 121.25 153.041 121.75L155.792 124.25L152.291 127.75L149.539 125.25C149.039 124.75 147.788 124 146.788 124C145.788 124 144.537 124.75 144.037 125.25L141.035 128C140.535 128.75 140.035 130 140.035 131C140.035 131.75 140.535 133.25 141.035 133.75L143.787 136.25L116.524 163.5C115.274 164.75 113.273 165.5 112.022 165.5C108.52 165.5 105.519 162.75 105.519 159C105.519 158.25 106.019 156.75 106.52 155.75L125.528 124H132.031C134.032 124 136.033 122.25 136.033 120V116C136.033 114 134.032 112 132.031 112H68.0018C65.7508 112 64 114 64 116V120C64 122.25 65.7508 124 68.0018 124H70.7531C68.5021 132 64 150.25 64 160C64 175.5 72.754 188.75 85.2598 195.25C90.0119 198 98.2657 200.25 103.518 200.25C103.768 200.25 103.768 200.25 104.018 200C123.277 200 133.032 187.25 136.033 184L197.561 107C198.812 105.5 201.563 104 203.814 104H220.072C223.573 104 225.324 99.75 222.823 97.25ZM88.011 166C84.5094 166 82.0083 163.5 82.0083 160C82.0083 156.75 84.5094 154 88.011 154C91.2625 154 94.0138 156.75 94.0138 160C94.0138 163.5 91.2625 166 88.011 166ZM96.0147 142C92.5131 142 90.0119 139.5 90.0119 136C90.0119 132.75 92.5131 130 96.0147 130C99.2662 130 102.017 132.75 102.017 136C102.017 139.5 99.2662 142 96.0147 142Z" fill="white"/>
</svg>
