<svg width="288" height="288" viewBox="0 0 288 288" fill="none" xmlns="http://www.w3.org/2000/svg">
<rect width="288" height="288" fill="#22A7F0"/>
<path d="M204 103.688H129.938L220.25 78.375C222.125 77.75 223.688 75.875 223.688 73.6875C223.688 73.375 223.688 72.75 223.688 72.4375L222.438 67.4375C221.812 65.5625 219.625 64 217.438 64C217.125 64 216.5 64 216.188 64L84 103.688C72.75 103.688 64 112.75 64 123.688V203.688C64 214.938 72.75 223.688 84 223.688H204C214.938 223.688 224 214.938 224 203.688V123.688C224 112.75 214.938 103.688 204 103.688ZM129 141.188V146.188C129 147.75 127.75 148.688 126.5 148.688H91.5C89.9375 148.688 89 147.75 89 146.188V141.188C89 139.938 89.9375 138.688 91.5 138.688H126.5C127.75 138.688 129 139.938 129 141.188ZM129 186.188C129 187.75 127.75 188.688 126.5 188.688H91.5C89.9375 188.688 89 187.75 89 186.188V181.188C89 179.938 89.9375 178.688 91.5 178.688H126.5C127.75 178.688 129 179.938 129 181.188V186.188ZM134 166.188C134 167.75 132.75 168.688 131.5 168.688H86.5C84.9375 168.688 84 167.75 84 166.188V161.188C84 159.938 84.9375 158.688 86.5 158.688H131.5C132.75 158.688 134 159.938 134 161.188V166.188ZM179 188.688C164.938 188.688 154 177.75 154 163.688C154 149.938 164.938 138.688 179 138.688C192.75 138.688 204 149.938 204 163.688C204 177.75 192.75 188.688 179 188.688Z" fill="white"/>
</svg>
