<svg width="288" height="288" viewBox="0 0 288 288" fill="none" xmlns="http://www.w3.org/2000/svg">
<rect width="288" height="288" fill="#4C5B6A"/>
<path d="M221.185 74.1982L212.115 65.1278C210.238 63.5639 207.11 62 204.921 62C202.731 62 199.291 63.5639 197.727 65.1278L183.339 79.5154C182.401 80.4538 181.15 82.6432 180.524 83.8943L176.771 95.1542L153 119.238C149.247 116.423 145.181 114.234 140.489 113.295C129.855 110.793 119.533 112.982 112.339 120.176C109.837 122.366 107.022 127.057 106.084 130.498C104.207 136.441 98.8898 140.819 92.9471 141.445C85.4405 142.071 78.5594 144.886 73.2422 150.203C58.8545 164.278 61.6695 189.925 78.8722 207.441C96.3876 224.643 122.035 227.145 136.11 213.071C141.427 207.753 144.242 200.872 145.181 193.366C145.493 187.423 149.872 182.106 155.815 180.229C159.255 179.291 163.947 176.476 166.137 173.974C173.33 166.78 175.52 156.458 173.018 145.824C172.079 141.445 169.89 137.066 167.075 133.313L191.159 109.542L202.418 105.789C203.67 105.163 205.859 103.912 206.797 102.974L221.185 88.5859C222.749 87.022 224 83.5815 224 81.3921C224 79.2027 222.749 76.0749 221.185 74.1982ZM129.229 172.097C120.784 172.097 114.216 165.529 114.216 157.084C114.216 148.952 120.784 142.071 129.229 142.071C137.361 142.071 144.242 148.952 144.242 157.084C144.242 165.529 137.361 172.097 129.229 172.097Z" fill="white"/>
</svg>
