<svg width="288" height="288" viewBox="0 0 288 288" fill="none" xmlns="http://www.w3.org/2000/svg">
<rect width="288" height="288" fill="#E4F4FD"/>
<path d="M154.312 67.0625C146.812 74.5625 143.375 84.5625 144 94.25L177.75 128C187.438 128.625 197.438 125.188 204.938 117.688L205.562 117.062L154.938 66.4375L154.312 67.0625ZM65.875 180.5C64.9375 181.75 64 184.25 64 185.812C64 187.688 64.9375 190.5 66.1875 191.75L80.25 205.812C81.5 207.062 84 208 86.1875 208C87.75 208 90.25 207.062 91.5 206.125L134 168.625V203C134 205.812 136.188 208 139 208H149C151.5 208 154 205.812 154 203V151.125L171.5 135.5L136.5 100.5L65.875 180.5ZM213.375 58.625C207.438 53 196.188 48 188.062 48C179.938 48 168.688 53 162.75 58.625L162.125 59.25L212.75 109.875L213.375 109.25C219 103.312 224 92.0625 224 83.9375C224 75.8125 219 64.5625 213.375 58.625Z" fill="#5B6984"/>
</svg>
