<svg width="288" height="288" viewBox="0 0 288 288" fill="none" xmlns="http://www.w3.org/2000/svg">
<rect width="288" height="288" fill="#40DBB0"/>
<path d="M101.5 132C105.562 132 109 128.875 109 124.5C109 120.438 105.562 117 101.5 117C97.125 117 94 120.438 94 124.5C94 128.875 97.125 132 101.5 132ZM186.5 132C190.562 132 194 128.875 194 124.5C194 120.438 190.562 117 186.5 117C182.125 117 179 120.438 179 124.5C179 128.875 182.125 132 186.5 132ZM209 87H189.625C181.812 78.5625 164.312 62 144 62C123.375 62 105.875 78.5625 98.0625 87H79C70.5625 87 64 93.875 64 102V207C64 215.438 70.5625 222 79 222H209C217.125 222 224 215.438 224 207V102C224 93.875 217.125 87 209 87ZM144 77C152.125 77 160.875 81.6875 167.75 87H119.938C127.125 81.6875 135.562 77 144 77ZM94 187C91.1875 187 89 184.812 89 182C89 179.5 91.1875 177 94 177C96.5 177 99 179.5 99 182C99 184.812 96.5 187 94 187ZM104 202C101.188 202 99 199.812 99 197C99 194.5 101.188 192 104 192C106.5 192 109 194.5 109 197C109 199.812 106.5 202 104 202ZM99 167C99 164.5 101.188 162 104 162C106.5 162 109 164.5 109 167C109 169.812 106.5 172 104 172C101.188 172 99 169.812 99 167ZM114 187C111.188 187 109 184.812 109 182C109 179.5 111.188 177 114 177C116.5 177 119 179.5 119 182C119 184.812 116.5 187 114 187ZM124 202C121.188 202 119 199.812 119 197C119 194.5 121.188 192 124 192C126.5 192 129 194.5 129 197C129 199.812 126.5 202 124 202ZM119 167C119 164.5 121.188 162 124 162C126.5 162 129 164.5 129 167C129 169.812 126.5 172 124 172C121.188 172 119 169.812 119 167ZM134 187C131.188 187 129 184.812 129 182C129 179.5 131.188 177 134 177C136.5 177 139 179.5 139 182C139 184.812 136.5 187 134 187ZM144 202C141.188 202 139 199.812 139 197C139 194.5 141.188 192 144 192C146.5 192 149 194.5 149 197C149 199.812 146.5 202 144 202ZM139 167C139 164.5 141.188 162 144 162C146.5 162 149 164.5 149 167C149 169.812 146.5 172 144 172C141.188 172 139 169.812 139 167ZM154 187C151.188 187 149 184.812 149 182C149 179.5 151.188 177 154 177C156.5 177 159 179.5 159 182C159 184.812 156.5 187 154 187ZM164 202C161.188 202 159 199.812 159 197C159 194.5 161.188 192 164 192C166.5 192 169 194.5 169 197C169 199.812 166.5 202 164 202ZM159 167C159 164.5 161.188 162 164 162C166.5 162 169 164.5 169 167C169 169.812 166.5 172 164 172C161.188 172 159 169.812 159 167ZM174 187C171.188 187 169 184.812 169 182C169 179.5 171.188 177 174 177C176.5 177 179 179.5 179 182C179 184.812 176.5 187 174 187ZM184 202C181.188 202 179 199.812 179 197C179 194.5 181.188 192 184 192C186.5 192 189 194.5 189 197C189 199.812 186.5 202 184 202ZM179 167C179 164.5 181.188 162 184 162C186.5 162 189 164.5 189 167C189 169.812 186.5 172 184 172C181.188 172 179 169.812 179 167ZM194 187C191.188 187 189 184.812 189 182C189 179.5 191.188 177 194 177C196.5 177 199 179.5 199 182C199 184.812 196.5 187 194 187ZM204 142H84V107H204V142ZM126.5 132C130.562 132 134 128.875 134 124.5C134 120.438 130.562 117 126.5 117C122.125 117 119 120.438 119 124.5C119 128.875 122.125 132 126.5 132ZM161.5 132C165.562 132 169 128.875 169 124.5C169 120.438 165.562 117 161.5 117C157.125 117 154 120.438 154 124.5C154 128.875 157.125 132 161.5 132Z" fill="white"/>
</svg>
