<svg width="288" height="288" viewBox="0 0 288 288" fill="none" xmlns="http://www.w3.org/2000/svg">
<rect width="288" height="288" fill="#5B6984"/>
<path d="M126.222 135.333C121.222 135.333 117.333 139.5 117.333 144.222C117.333 149.222 121.222 153.111 126.222 153.111C130.944 153.111 135.111 149.222 135.111 144.222C135.111 139.5 130.944 135.333 126.222 135.333ZM206.222 82H81.7778C71.7778 82 64 90.0556 64 99.7778V188.667C64 198.667 71.7778 206.444 81.7778 206.444H206.222C215.944 206.444 224 198.667 224 188.667V99.7778C224 90.0556 215.944 82 206.222 82ZM126.222 188.667C101.5 188.667 81.7778 168.944 81.7778 144.222C81.7778 119.778 101.5 99.7778 126.222 99.7778C150.667 99.7778 170.667 119.778 170.667 144.222C170.667 168.944 150.667 188.667 126.222 188.667ZM206.222 147.556C206.222 150.056 205.111 153.389 204.278 155.611L199 166.167C200.389 166.722 201.5 168.667 201.5 170.056C201.5 170.611 201.222 171.444 200.944 172L193.722 186.444C193.167 187.833 191.222 188.667 189.833 188.667C189.278 188.667 188.444 188.667 187.889 188.389L179.833 184.222C178.444 183.667 177.333 182 177.333 180.333C177.333 179.778 177.611 178.944 177.889 178.389L185.111 164.222C185.667 162.833 187.611 161.722 189 161.722C189.556 161.722 190.389 162 190.944 162L196.222 151.722C196.778 150.611 197.333 148.667 197.333 147.556V102C197.333 100.889 198.167 99.7778 199.556 99.7778H204C205.111 99.7778 206.222 100.889 206.222 102V147.556Z" fill="white"/>
</svg>
