<svg width="288" height="288" viewBox="0 0 288 288" fill="none" xmlns="http://www.w3.org/2000/svg">
<rect width="288" height="288" fill="#FD9E66"/>
<path d="M135.616 156.062C136.866 153.25 138.117 148.562 138.117 145.125C138.117 136.062 132.802 128.25 124.674 122.938C120.61 120.438 116.233 119.188 111.543 118.562V101.688L116.545 91.375C117.171 90.4375 117.483 88.5625 117.483 87.3125V70.4375C117.483 65.75 113.732 62 109.355 62H98.4129C94.0361 62 90.2846 65.75 90.2846 70.4375V87.3125C90.2846 88.5625 90.5972 90.4375 91.2225 91.375L96.5372 101.688V118.562C91.8477 119.188 87.1583 120.438 83.0941 122.938C81.2183 124.188 78.7173 126.062 77.1541 127.625C72.4647 132.312 69.651 138.562 69.651 145.438C69.651 148.562 70.9015 153.25 72.1521 156.062C74.6531 160.75 74.0278 167 70.5889 171.375C66.5247 176.375 63.7111 182.625 64.0237 189.188C63.7111 207.312 81.8436 222 104.04 222C116.233 222 127.487 217.312 134.991 210.125C135.303 209.812 135.616 209.188 135.928 208.875C134.678 205.75 134.053 200.438 134.053 197.312C134.053 193.25 134.991 187.312 136.554 183.875L139.993 175.125C139.055 173.875 137.804 172.312 137.179 171.062C133.74 167 133.115 160.75 135.616 156.062ZM112.794 166.062C110.605 167.938 106.854 169.5 103.728 169.5C96.8498 169.5 91.2225 164.188 91.2225 157C91.2225 150.125 96.8498 144.5 103.728 144.5C106.854 144.5 110.605 146.375 112.794 148.25C114.67 150.438 116.545 154.188 116.545 157.312C116.545 160.125 114.67 163.875 112.794 166.062ZM221.902 187.312L213.461 164.5C212.835 162.312 212.21 158.875 212.21 156.688C212.21 153.875 213.148 149.5 214.399 147C215.336 144.5 216.587 140.125 216.587 137.312V128.562C216.587 125.438 213.773 122.625 210.647 122.625C208.771 122.625 206.583 124.188 205.645 125.75L202.206 132.312C200.643 135.438 197.517 137.625 194.078 138.25H191.577V85.125C191.889 84.8125 192.514 84.1875 193.14 83.875C195.015 81.6875 196.891 77.9375 196.891 74.8125C196.891 67.9375 190.951 62 184.073 62C181.885 62 178.759 63.25 176.883 64.1875C171.881 67.625 172.506 68.5625 166.879 94.5C166.879 94.8125 166.879 95.75 166.879 96.0625C166.879 98.25 167.817 100.75 169.38 102.312L176.57 109.188V137.938H174.069C170.318 137 167.504 134.5 166.254 131.062L162.189 119.812C161.251 117.938 159.063 116.062 156.875 116.062C153.748 116.062 151.56 118.562 151.56 121.688V137.312C151.56 140.125 152.498 144.5 153.748 147C154.686 149.5 155.937 153.875 155.937 156.688C155.937 158.875 155.312 162.312 154.374 164.5L145.933 187.312C139.055 203.875 150.935 222 168.755 222H199.08C216.9 222 229.092 203.875 221.902 187.312ZM199.08 184.5C199.08 186.062 197.829 187 196.579 187H171.568C170.005 187 169.067 186.062 169.067 184.5V179.5C169.067 178.25 170.005 177 171.568 177H196.579C197.829 177 199.08 178.25 199.08 179.5V184.5ZM199.08 164.5C199.08 166.062 197.829 167 196.579 167H171.568C170.005 167 169.067 166.062 169.067 164.5V159.5C169.067 158.25 170.005 157 171.568 157H196.579C197.829 157 199.08 158.25 199.08 159.5V164.5Z" fill="white"/>
</svg>
