<svg width="288" height="288" viewBox="0 0 288 288" fill="none" xmlns="http://www.w3.org/2000/svg">
<rect width="288" height="288" fill="#FD9E66"/>
<path d="M221.795 74.3693C220.545 68.7461 215.235 63.4353 209.924 62.4981C202.739 60.9361 202.739 62.1857 176.497 79.0553C173.998 80.9297 172.124 84.6784 172.124 87.49V98.1116L138.072 131.851C137.135 129.976 136.198 126.852 136.198 124.978C136.198 123.416 136.51 121.229 137.135 119.667L142.446 108.108C142.758 107.484 143.071 106.546 143.071 105.609C143.071 102.485 140.571 99.6736 137.135 99.6736C135.885 99.6736 134.011 100.611 133.074 101.548L121.203 113.419C119.016 115.606 116.517 119.667 115.267 122.479C113.393 127.789 107.77 134.037 102.771 136.224L79.0288 147.471C60.9097 154.656 56.2237 177.461 69.9692 191.206L92.7744 214.012C106.52 227.757 129.637 223.071 136.51 205.264L147.757 181.21C149.943 176.211 156.191 170.588 161.502 168.714C164.314 167.464 168.375 164.965 170.562 162.778L177.434 156.218C178.372 155.281 178.996 153.094 178.996 151.844C178.996 148.408 176.497 145.596 173.061 145.596C172.436 145.596 171.499 145.596 171.186 145.909L163.689 148.095C162.752 148.408 160.877 148.72 159.94 148.72C157.441 148.72 154.005 147.471 152.13 145.909L206.175 91.8636C206.488 92.176 206.8 92.176 207.112 92.176C215.235 92.176 222.107 85.3032 222.107 77.1809C222.107 76.2437 221.795 74.9941 221.795 74.3693ZM118.703 185.271L115.267 188.707C114.955 189.02 114.017 189.332 113.393 189.332C112.768 189.332 112.143 189.02 111.831 188.707L95.2735 172.15C94.9611 171.838 94.3363 171.213 94.3363 170.588C94.3363 169.963 94.9611 169.026 95.2735 168.714L98.7099 165.277C99.0223 164.965 99.9595 164.653 100.584 164.653C101.209 164.653 101.834 164.965 102.146 165.277L118.703 181.522C119.016 182.147 119.641 182.772 119.641 183.396C119.641 184.021 119.016 184.958 118.703 185.271ZM138.697 165.277L135.261 168.714C134.948 169.026 134.011 169.339 133.386 169.339C132.761 169.339 132.137 169.026 131.824 168.714L115.267 152.157C114.955 151.844 114.33 151.219 114.33 150.595C114.33 149.97 114.955 149.033 115.267 148.72L118.703 145.284C119.016 144.971 119.953 144.659 120.578 144.659C121.203 144.659 121.827 144.971 122.14 145.284L138.697 161.529C139.009 162.153 139.634 162.778 139.634 163.403C139.634 164.028 139.009 164.965 138.697 165.277Z" fill="white"/>
</svg>
