<svg width="288" height="288" viewBox="0 0 288 288" fill="none" xmlns="http://www.w3.org/2000/svg">
<rect width="288" height="288" fill="#E4F4FD"/>
<path d="M223.444 157.167L210.667 106.611C208.167 96.3333 197.611 88 187.056 88C184.833 88 181.5 88.8333 179.278 89.3889L175.111 90.7778C173.444 91.3333 172.056 93.2778 172.056 94.9444C172.056 95.5 172.056 96.0556 172.333 96.3333L173.722 100.5C174.278 102.444 176.222 103.556 177.889 103.556C178.167 103.556 179 103.556 179.278 103.556L182.889 102.167C185.944 101.333 189.278 101.333 192.056 102.722C194.556 104.111 197.056 107.167 197.889 109.944L208.444 152.722C202.333 150.778 192.333 149.111 185.944 149.111C174.833 149.111 162.056 151.611 149 159.111H138.722C125.667 151.611 112.889 149.111 101.778 149.111C95.3889 149.111 85.3889 150.778 79.2778 152.722L89.8333 109.944C90.6667 107.167 93.1667 104.111 95.6667 102.722C98.4444 101.333 101.778 101.333 104.833 102.167L108.444 103.556C108.722 103.556 109.556 103.556 109.833 103.556C111.5 103.556 113.444 102.444 114 100.5L115.389 96.3333C115.667 96.0556 115.667 95.5 115.667 94.9444C115.667 93.2778 114.278 91.3333 112.611 90.7778L108.444 89.3889C106.222 88.8333 102.889 88 100.667 88C90.1111 88 79.5556 96.3333 77.0556 106.611L64.2778 157.167C64 158.278 64 160.222 64 161.333V181.056C64 198.278 78.1667 212.444 95.9444 212.444H106.222C122.889 212.444 136.778 199.944 138.167 183.278L139 172.444H148.722L149.556 183.278C150.944 199.944 164.833 212.444 181.5 212.444H191.778C209.556 212.444 224 198.278 224 181.056V161.333C224 160.222 223.722 158.278 223.444 157.167ZM77.3333 181.056V167.444C82.6111 165.222 91.5 162.444 101.778 162.444L77.3333 181.056ZM162.889 182.167L161.778 167.722C168.167 164.667 179 162.444 185.944 162.444L162.889 182.167Z" fill="#5B6984"/>
</svg>
