<svg width="288" height="288" viewBox="0 0 288 288" fill="none" xmlns="http://www.w3.org/2000/svg">
<rect width="288" height="288" fill="#E4F4FD"/>
<path d="M148.75 84L146 81.25C145.25 80.75 144 80.25 143 80.25C142.25 80.25 140.75 80.75 140.25 81.25L63 158.5C62.5 159 62 160.5 62 161.25C62 162.25 62.5 163.5 63 164L66 167C66.5 167.5 67.75 168 68.75 168C69.5 168 71 167.5 71.5 167L148.75 89.75C149.25 89.25 149.75 87.75 149.75 87C149.75 86 149.25 84.75 148.75 84ZM192 92C195.25 92 198 89.5 198 86C198 82.75 195.25 80 192 80C188.5 80 186 82.75 186 86C186 89.5 188.5 92 192 92ZM121.25 184L118 180.75C117.25 180 116 179.5 115 179.5C114.5 179.5 113.5 179.75 112.75 180.25L95.75 191.75C94.75 192.25 94 193.75 94 195C94 196 94.5 197.25 95 197.75L104.25 207C104.75 207.5 106 208 107 208C108.25 208 109.75 207.25 110.25 206.25L121.75 189C122.25 188.5 122.5 187.5 122.5 187C122.5 186 122 184.75 121.25 184ZM180 104C183.25 104 186 101.5 186 98C186 94.75 183.25 92 180 92C176.5 92 174 94.75 174 98C174 101.5 176.5 104 180 104ZM176.25 137L220.75 92.5C221.25 92 221.75 90.75 221.75 89.75C221.75 88.75 221.25 87.5 220.75 87L215 81.25C214.5 80.75 213.25 80.25 212.25 80.25C211.25 80.25 210 80.75 209.5 81.25L165 125.75C162 123.5 158.5 121.75 155 121C146.75 119 138.5 120.75 132.75 126.25C133.5 127.75 133.75 130.5 134 132.25C134 143.25 125 152.25 114 152.25C110.75 152.25 105.75 150.75 103 149C102.5 149.5 101.75 150 101.25 150.5C93.5 158.25 92 170.25 96.5 181.5L108.5 173.5C110 172.5 113 171.5 115 171.5C117.75 171.5 121.75 173.25 123.5 175L127 178.5C129 180.5 130.5 184.25 130.5 187C130.5 189 129.5 192 128.5 193.5L120.5 205.5C131.75 210 143.75 208.5 151.5 200.75C152 200.25 152.75 199.5 153 198.75C151.25 196.25 149.75 191.25 149.75 188C149.75 177 158.75 168 169.5 168C171.25 168 174.25 168.5 175.75 169C181.25 163.5 183 155.25 181 147C180.25 143.25 178.5 140 176.25 137ZM216 104C212.5 104 210 106.75 210 110C210 113.5 212.5 116 216 116C219.25 116 222 113.5 222 110C222 106.75 219.25 104 216 104ZM204 116C200.5 116 198 118.75 198 122C198 125.5 200.5 128 204 128C207.25 128 210 125.5 210 122C210 118.75 207.25 116 204 116Z" fill="#5B6984"/>
</svg>
