<svg width="275" height="48" viewBox="0 0 275 48" fill="none" xmlns="http://www.w3.org/2000/svg">
<path d="M189.707 13.01C196.007 13.01 199.157 15.5067 199.157 20.5C199.157 22.2267 198.76 23.6267 197.967 24.7C197.173 25.75 196.182 26.555 194.992 27.115L201.852 38H195.517L190.232 28.41H188.097V38H182.427V13.01H189.707ZM189.462 17.35H188.097V24.105H189.497C192.133 24.105 193.452 22.95 193.452 20.64C193.452 19.45 193.125 18.61 192.472 18.12C191.842 17.6067 190.838 17.35 189.462 17.35ZM212.139 18.505C214.496 18.505 216.316 19.065 217.599 20.185C218.906 21.2817 219.559 22.9733 219.559 25.26V38H215.674L214.589 35.41H214.449C213.679 36.4367 212.862 37.1833 211.999 37.65C211.159 38.1167 209.981 38.35 208.464 38.35C206.901 38.35 205.582 37.86 204.509 36.88C203.459 35.9 202.934 34.3717 202.934 32.295C202.934 30.265 203.599 28.7717 204.929 27.815C206.282 26.835 208.266 26.2983 210.879 26.205L213.959 26.1V25.26C213.959 24.2567 213.737 23.5217 213.294 23.055C212.851 22.5883 212.244 22.355 211.474 22.355C210.657 22.355 209.817 22.495 208.954 22.775C208.114 23.0317 207.262 23.3583 206.399 23.755L204.684 20.22C205.687 19.7067 206.819 19.2983 208.079 18.995C209.339 18.6683 210.692 18.505 212.139 18.505ZM213.994 29.145L212.314 29.215C210.937 29.2617 209.981 29.565 209.444 30.125C208.907 30.685 208.639 31.42 208.639 32.33C208.639 33.1233 208.826 33.695 209.199 34.045C209.596 34.3717 210.109 34.535 210.739 34.535C211.626 34.535 212.384 34.2083 213.014 33.555C213.667 32.8783 213.994 31.9333 213.994 30.72V29.145ZM229.889 38.35C227.953 38.35 226.366 37.5217 225.129 35.865C223.893 34.185 223.274 31.7233 223.274 28.48C223.274 25.2133 223.904 22.74 225.164 21.06C226.424 19.38 228.058 18.54 230.064 18.54C231.324 18.54 232.339 18.8083 233.109 19.345C233.903 19.8817 234.544 20.5467 235.034 21.34H235.174C235.104 20.9667 235.034 20.43 234.964 19.73C234.894 19.0067 234.859 18.2717 234.859 17.525V11.4H240.459V38H236.224L235.069 35.515H234.859C234.393 36.3083 233.763 36.985 232.969 37.545C232.199 38.0817 231.173 38.35 229.889 38.35ZM232.024 34.185C233.191 34.185 234.019 33.765 234.509 32.925C235.023 32.0617 235.279 30.7783 235.279 29.075V28.515C235.279 26.6717 235.046 25.26 234.579 24.28C234.113 23.2767 233.238 22.775 231.954 22.775C231.021 22.775 230.286 23.2767 229.749 24.28C229.213 25.26 228.944 26.6833 228.944 28.55C228.944 30.4167 229.213 31.8283 229.749 32.785C230.309 33.7183 231.068 34.185 232.024 34.185ZM248.041 11.4C248.857 11.4 249.557 11.5867 250.141 11.96C250.724 12.31 251.016 12.975 251.016 13.955C251.016 14.9117 250.724 15.5767 250.141 15.95C249.557 16.3233 248.857 16.51 248.041 16.51C247.201 16.51 246.489 16.3233 245.906 15.95C245.322 15.5767 245.031 14.9117 245.031 13.955C245.031 12.975 245.322 12.31 245.906 11.96C246.489 11.5867 247.201 11.4 248.041 11.4ZM250.806 18.89V38H245.206V18.89H250.806ZM272.397 28.41C272.397 31.5833 271.592 34.0333 269.982 35.76C268.395 37.4867 266.225 38.35 263.472 38.35C261.745 38.35 260.217 37.965 258.887 37.195C257.557 36.425 256.507 35.305 255.737 33.835C254.99 32.3417 254.617 30.5333 254.617 28.41C254.617 25.2367 255.41 22.7983 256.997 21.095C258.607 19.3917 260.8 18.54 263.577 18.54C265.28 18.54 266.797 18.925 268.127 19.695C269.457 20.465 270.495 21.585 271.242 23.055C272.012 24.525 272.397 26.31 272.397 28.41ZM260.322 28.41C260.322 30.3 260.567 31.735 261.057 32.715C261.547 33.6717 262.375 34.15 263.542 34.15C264.685 34.15 265.49 33.6717 265.957 32.715C266.447 31.735 266.692 30.3 266.692 28.41C266.692 26.52 266.447 25.1083 265.957 24.175C265.467 23.2183 264.65 22.74 263.507 22.74C262.364 22.74 261.547 23.2183 261.057 24.175C260.567 25.1083 260.322 26.52 260.322 28.41Z" fill="white"/>
<path d="M102.491 25.5223C102.491 27.4857 103.27 29.3688 104.657 30.758C106.045 32.1471 107.927 32.9287 109.891 32.931V18.1137C107.927 18.116 106.045 18.8976 104.657 20.2867C103.27 21.6758 102.491 23.5589 102.491 25.5223V25.5223Z" fill="white"/>
<path d="M109.89 11.1124C111.302 11.1124 112.447 9.96794 112.447 8.55619C112.447 7.14445 111.302 6 109.89 6C108.479 6 107.334 7.14445 107.334 8.55619C107.334 9.96794 108.479 11.1124 109.89 11.1124Z" fill="white"/>
<path d="M11.7758 37.5321C11.4103 37.5295 11.0541 37.4164 10.7541 37.2076C10.4541 36.9988 10.2242 36.7041 10.0948 36.3623L2.70353 16.5886H2.53889C2.60821 17.2732 2.6602 18.209 2.70353 19.3788C2.74685 20.5486 2.77285 21.7703 2.77285 23.0441V36.137C2.77285 36.5055 2.62706 36.859 2.36731 37.1204C2.10755 37.3818 1.75493 37.5298 1.38644 37.5321V37.5321C1.20364 37.5321 1.02265 37.4959 0.853872 37.4257C0.685098 37.3555 0.531875 37.2526 0.403021 37.1229C0.274167 36.9933 0.172226 36.8394 0.103064 36.6702C0.0339019 36.501 -0.0011154 36.3198 2.70809e-05 36.137V16.268C2.70809e-05 15.5786 0.273904 14.9174 0.761408 14.4299C1.24891 13.9424 1.91011 13.6685 2.59955 13.6685V13.6685C3.13882 13.6664 3.6654 13.8321 4.10631 14.1426C4.54723 14.4531 4.88067 14.8931 5.06042 15.4015L11.8018 33.2082H11.9405L18.7859 15.3235C18.9732 14.8276 19.3076 14.4008 19.7444 14.1003C20.1811 13.7999 20.6993 13.6401 21.2294 13.6425V13.6425C21.5708 13.6425 21.9088 13.7097 22.2242 13.8404C22.5396 13.971 22.8262 14.1625 23.0676 14.4039C23.309 14.6453 23.5004 14.9318 23.6311 15.2472C23.7617 15.5626 23.829 15.9006 23.829 16.242V36.0417C23.829 36.4355 23.6731 36.8132 23.3955 37.0925C23.1179 37.3718 22.741 37.5298 22.3472 37.5321V37.5321C21.9595 37.5208 21.5915 37.3588 21.3213 37.0805C21.0511 36.8022 20.9 36.4296 20.9002 36.0417V22.8448C20.9002 21.6837 20.9002 20.5312 20.9781 19.3788C21.0561 18.2263 21.0908 17.3165 21.1341 16.5973H20.9955L13.4482 36.371C13.3221 36.7126 13.094 37.0072 12.7949 37.2149C12.4957 37.4226 12.14 37.5333 11.7758 37.5321V37.5321Z" fill="white"/>
<path d="M37.8491 25.3837L43.6721 14.3964C43.7911 14.1685 43.9704 13.9777 44.1904 13.8448C44.4105 13.7118 44.6628 13.6419 44.9198 13.6425V13.6425C45.1667 13.6404 45.4098 13.7029 45.625 13.824C45.8401 13.9451 46.0197 14.1205 46.146 14.3326C46.2722 14.5448 46.3406 14.7863 46.3444 15.0332C46.3482 15.28 46.2873 15.5235 46.1676 15.7395L39.3482 28.2605V36.059C39.3493 36.2566 39.3114 36.4525 39.2366 36.6354C39.1618 36.8182 39.0515 36.9845 38.9122 37.1246C38.7729 37.2648 38.6073 37.376 38.4248 37.4518C38.2424 37.5277 38.0467 37.5668 37.8491 37.5668V37.5668C37.4493 37.5668 37.0658 37.4079 36.783 37.1252C36.5003 36.8424 36.3414 36.4589 36.3414 36.059V28.4338L29.5653 15.7655C29.4468 15.5464 29.3872 15.3002 29.3923 15.0511C29.3975 14.8021 29.4672 14.5586 29.5948 14.3446C29.7223 14.1306 29.9032 13.9534 30.1198 13.8303C30.3365 13.7072 30.5813 13.6425 30.8304 13.6425V13.6425C31.092 13.6418 31.3489 13.7124 31.5733 13.8468C31.7977 13.9811 31.9813 14.1741 32.1042 14.4051L37.8491 25.3837Z" fill="white"/>
<path d="M83.4531 13.6427C86.4252 13.6427 88.6521 14.2059 90.0298 15.3324C90.7584 15.9577 91.33 16.7452 91.6987 17.6316C92.0674 18.518 92.223 19.4786 92.1528 20.4361C92.1918 21.5357 91.9503 22.6271 91.4509 23.6075C91.0183 24.4181 90.4045 25.1179 89.6572 25.6525C88.9571 26.1539 88.1861 26.5482 87.3697 26.8223L92.5687 35.262C92.7072 35.4875 92.7831 35.7458 92.7887 36.0104C92.7943 36.275 92.7293 36.5362 92.6005 36.7674C92.4717 36.9985 92.2837 37.1912 92.0558 37.3257C91.8278 37.4601 91.5682 37.5314 91.3036 37.5323V37.5323C91.0433 37.5307 90.7878 37.4621 90.5616 37.3331C90.3355 37.2041 90.1464 37.019 90.0125 36.7958L84.6228 27.6455H79.8744V36.0072C79.8744 36.4071 79.7155 36.7906 79.4328 37.0734C79.15 37.3561 78.7665 37.515 78.3667 37.515V37.515C78.1691 37.515 77.9734 37.4759 77.791 37.4C77.6086 37.3242 77.4429 37.213 77.3036 37.0728C77.1643 36.9327 77.054 36.7664 76.9792 36.5836C76.9044 36.4007 76.8665 36.2048 76.8676 36.0072V13.6427H83.4531ZM83.2884 16.2422H79.8744V25.1153H83.4531C85.394 25.1153 86.8122 24.7311 87.7076 23.9628C88.1676 23.5307 88.5259 23.0019 88.7566 22.4145C88.9874 21.8271 89.0849 21.1957 89.042 20.5661C89.1001 19.9384 89.0006 19.306 88.7525 18.7265C88.5043 18.1469 88.1154 17.6385 87.621 17.2474C86.3072 16.4937 84.7994 16.1469 83.2884 16.2509V16.2422Z" fill="white"/>
<path d="M129.898 37.5323C129.498 37.5323 129.114 37.3734 128.832 37.0907C128.549 36.8079 128.39 36.4244 128.39 36.0246V13.6427H140.417C140.767 13.6427 141.102 13.7815 141.349 14.0285C141.596 14.2755 141.734 14.6105 141.734 14.9598V14.9598C141.735 15.1335 141.702 15.3057 141.637 15.4665C141.571 15.6273 141.474 15.7735 141.352 15.8967C141.229 16.02 141.084 16.1177 140.923 16.1845C140.763 16.2512 140.591 16.2856 140.417 16.2856H131.397V24.7513H139.776C139.95 24.7502 140.122 24.7834 140.283 24.8491C140.443 24.9148 140.59 25.0116 140.713 25.134C140.836 25.2564 140.934 25.402 141.001 25.5624C141.067 25.7227 141.102 25.8947 141.102 26.0684C141.102 26.42 140.962 26.7572 140.713 27.0059C140.465 27.2545 140.128 27.3942 139.776 27.3942H131.397V36.0592C131.388 36.4516 131.226 36.8249 130.946 37.1C130.666 37.3751 130.29 37.5301 129.898 37.5323Z" fill="white"/>
<path d="M154.342 37.5321C153.942 37.5321 153.559 37.3732 153.276 37.0905C152.993 36.8077 152.834 36.4242 152.834 36.0244V16.2853H146.699C146.348 16.2853 146.011 16.1457 145.762 15.897C145.513 15.6484 145.374 15.3112 145.374 14.9596V14.9596C145.376 14.6095 145.517 14.2745 145.765 14.0277C146.013 13.781 146.349 13.6425 146.699 13.6425H161.95C162.124 13.6414 162.296 13.6746 162.457 13.7403C162.617 13.8059 162.764 13.9028 162.887 14.0252C163.01 14.1476 163.108 14.2932 163.175 14.4536C163.241 14.6139 163.276 14.7859 163.276 14.9596V14.9596C163.277 15.134 163.243 15.3069 163.177 15.4683C163.111 15.6297 163.013 15.7763 162.89 15.8996C162.767 16.0229 162.62 16.1206 162.459 16.1868C162.297 16.253 162.124 16.2865 161.95 16.2853H155.884V36.0244C155.884 36.2253 155.844 36.4242 155.766 36.6095C155.688 36.7947 155.574 36.9625 155.431 37.1029C155.287 37.2434 155.117 37.3537 154.93 37.4274C154.743 37.5011 154.543 37.5367 154.342 37.5321V37.5321Z" fill="white"/>
<path d="M61.2362 37.6533C59.2515 37.6345 57.3017 37.129 55.5578 36.1811C53.8139 35.2332 52.3293 33.8719 51.2341 32.2166C50.1389 30.5612 49.4666 28.6625 49.2761 26.6868C49.0856 24.7111 49.3829 22.7189 50.1417 20.8848C50.9006 19.0508 52.0978 17.4309 53.6285 16.1674C55.1592 14.9038 56.9765 14.0352 58.9211 13.6376C60.8658 13.24 62.8782 13.3256 64.782 13.8869C66.6858 14.4483 68.4228 15.4682 69.8407 16.8572C69.9692 16.9863 70.0711 17.1395 70.1405 17.3081C70.2099 17.4766 70.2454 17.6571 70.245 17.8394C70.2446 18.0216 70.2083 18.202 70.1381 18.3702C70.068 18.5384 69.9655 18.6912 69.8363 18.8198C69.7072 18.9484 69.5539 19.0503 69.3854 19.1196C69.2169 19.189 69.0363 19.2245 68.8541 19.2241C68.6719 19.2237 68.4915 19.1874 68.3233 19.1173C68.155 19.0472 68.0023 18.9446 67.8737 18.8155C66.5573 17.5009 64.8803 16.6068 63.0551 16.2466C61.23 15.8864 59.339 16.0762 57.6219 16.7921C55.9048 17.508 54.4389 18.7176 53.4102 20.2676C52.3815 21.8177 51.8362 23.6383 51.8435 25.4986C51.8508 27.359 52.4104 29.1752 53.4512 30.7171C54.4921 32.259 55.9674 33.4571 57.6901 34.1595C59.4127 34.8619 61.3052 35.0369 63.1274 34.6623C64.9497 34.2878 66.6197 33.3806 67.9257 32.0557C68.0506 31.9156 68.2027 31.8023 68.3727 31.7227C68.5427 31.6431 68.7271 31.5988 68.9147 31.5926C69.1023 31.5864 69.2892 31.6184 69.4641 31.6866C69.639 31.7548 69.7983 31.8578 69.9322 31.9893C70.0661 32.1209 70.1719 32.2782 70.2431 32.4519C70.3144 32.6256 70.3497 32.8119 70.3468 32.9996C70.3439 33.1873 70.3029 33.3724 70.2263 33.5438C70.1498 33.7152 70.0392 33.8693 69.9013 33.9967C68.7749 35.1546 67.4276 36.0749 65.9393 36.703C64.4509 37.3311 62.8517 37.6542 61.2362 37.6533V37.6533Z" fill="white"/>
<path d="M109.899 15.8347C111.817 15.8347 113.692 16.4036 115.287 17.4694C116.882 18.5352 118.124 20.0501 118.858 21.8223C119.592 23.5946 119.783 25.5446 119.408 27.4257C119.034 29.3068 118.109 31.0345 116.752 32.3902C115.395 33.7459 113.667 34.6687 111.785 35.0418C109.904 35.415 107.954 35.2217 106.183 34.4865C104.411 33.7513 102.897 32.5072 101.833 30.9115C100.768 29.3158 100.201 27.4403 100.203 25.5222C100.205 22.9521 101.228 20.4881 103.046 18.6716C104.864 16.8551 107.329 15.8347 109.899 15.8347V15.8347ZM109.899 13.0619C107.432 13.0601 105.02 13.7902 102.968 15.1597C100.917 16.5291 99.317 18.4764 98.3722 20.7552C97.4274 23.034 97.1797 25.5418 97.6606 27.9613C98.1414 30.3809 99.3291 32.6035 101.073 34.3478C102.818 36.0922 105.04 37.2799 107.46 37.7607C109.88 38.2416 112.387 37.9939 114.666 37.0491C116.945 36.1043 118.892 34.5047 120.262 32.4529C121.631 30.4011 122.361 27.9891 122.359 25.5222C122.355 22.2189 121.041 19.0523 118.705 16.7165C116.369 14.3807 113.202 13.0664 109.899 13.0619Z" fill="white"/>
</svg>
