<svg width="55" height="56" viewBox="0 0 55 56" fill="none" xmlns="http://www.w3.org/2000/svg">
<g filter="url(#filter0_d_3902_216)">
<path d="M50.7983 31.4127L40.8473 33.5291L41.8329 43.4093L32.5165 39.4565L27.4329 48L22.2819 39.4565L12.9654 43.4093L13.9511 33.5291L4 31.4127L10.7747 24L4 16.5873L13.9511 14.4709L12.9654 4.58734L22.2819 8.54008L27.4329 0L32.5165 8.54008L41.8329 4.58734L40.8473 14.4709L50.7983 16.5873L44.0236 24L50.7983 31.4127Z" fill="#F16850"/>
<path d="M27.4328 14.9638L22.2818 8.54015L12.9653 4.5874L18.4708 11.8583L27.4328 14.9638Z" fill="#FD694F"/>
<path d="M13.9511 14.4712L4 16.5876L10.7747 24.0003L18.7511 21.1041L13.9511 14.4712Z" fill="#FF3413"/>
<path d="M18.4708 11.8583L12.9653 4.5874L13.951 14.4709L18.751 21.1039L18.4708 11.8583Z" fill="#DC1D23"/>
<path d="M32.5163 8.54008L27.4328 0L22.2817 8.54008L27.4328 14.9637L32.5163 8.54008Z" fill="#FF9281"/>
<path d="M44.0237 24.0003L50.7984 16.5876L40.8474 14.4712L36.0474 21.1041L44.0237 24.0003Z" fill="#FF8B79"/>
<path d="M36.0474 21.1039L40.8474 14.4709L41.833 4.5874L36.3275 11.8583L36.0474 21.1039Z" fill="#FD694F"/>
<path d="M36.3271 11.8583L41.8326 4.5874L32.5162 8.54015L27.4326 14.9638L36.3271 11.8583Z" fill="#EF5240"/>
<path d="M41.833 28.4463L50.7984 31.4134L44.0237 24.0007L36.0474 21.1045L41.833 28.4463Z" fill="#FF482C"/>
<path d="M18.7511 21.1045L10.7747 24.0007L4 31.4134L12.9654 28.4463L18.7511 21.1045Z" fill="#EC2101"/>
<path d="M27.4326 38.68V47.9999L32.5162 39.4564L32.7288 31.0581L27.4326 38.68Z" fill="#D21C22"/>
<path d="M41.8333 28.4453L32.7295 31.058L40.8476 33.5289L50.7987 31.4124L41.8333 28.4453Z" fill="#C90901"/>
<path d="M32.5161 39.4564L41.8326 43.4092L40.8469 33.529L32.7288 31.0581L32.5161 39.4564Z" fill="#EC2101"/>
<path d="M12.9654 28.4453L4 31.4124L13.9511 33.5289L22.0692 31.058L12.9654 28.4453Z" fill="#B6171E"/>
<path d="M22.0688 31.0581L22.2815 39.4564L27.4326 47.9999V38.68L22.0688 31.0581Z" fill="#B4151B"/>
<path d="M13.951 33.529L12.9653 43.4092L22.2818 39.4564L22.0691 31.0581L13.951 33.529Z" fill="#D21C22"/>
<path d="M36.047 21.104L36.3271 11.8584L27.4326 14.9639V23.9293L36.047 21.104Z" fill="#E63320"/>
<path d="M27.4332 14.9639L18.4712 11.8584L18.7514 21.104L27.4332 23.9293V14.9639Z" fill="#FF4527"/>
<path d="M22.0688 31.0578L27.4326 38.6798L32.7288 31.0578L27.4326 23.9287L22.0688 31.0578Z" fill="#FF9281"/>
<path d="M27.4326 23.9298L32.7288 31.0589L41.8326 28.4463L36.047 21.1045L27.4326 23.9298Z" fill="#FD684D"/>
<path d="M18.751 21.1045L12.9653 28.4463L22.0691 31.0589L27.4328 23.9298L18.751 21.1045Z" fill="#FD745C"/>
</g>
<defs>
<filter id="filter0_d_3902_216" x="0" y="0" width="54.7988" height="56" filterUnits="userSpaceOnUse" color-interpolation-filters="sRGB">
<feFlood flood-opacity="0" result="BackgroundImageFix"/>
<feColorMatrix in="SourceAlpha" type="matrix" values="0 0 0 0 0 0 0 0 0 0 0 0 0 0 0 0 0 0 127 0" result="hardAlpha"/>
<feOffset dy="4"/>
<feGaussianBlur stdDeviation="2"/>
<feComposite in2="hardAlpha" operator="out"/>
<feColorMatrix type="matrix" values="0 0 0 0 0 0 0 0 0 0 0 0 0 0 0 0 0 0 0.25 0"/>
<feBlend mode="normal" in2="BackgroundImageFix" result="effect1_dropShadow_3902_216"/>
<feBlend mode="normal" in="SourceGraphic" in2="effect1_dropShadow_3902_216" result="shape"/>
</filter>
</defs>
</svg>
