<svg width="16" height="16" viewBox="0 0 16 16" fill="none" xmlns="http://www.w3.org/2000/svg">
<path d="M7.0625 2C6.73438 2 6.5 2.25781 6.5 2.5625V6.5H4.4375C4.01562 6.5 3.80469 7.01562 4.10938 7.32031L7.67188 10.8828C7.83594 11.0469 8.14062 11.0469 8.30469 10.8828L11.8672 7.32031C12.1719 7.01562 11.9609 6.5 11.5391 6.5H9.5V2.5625C9.5 2.25781 9.24219 2 8.9375 2H7.0625ZM14 10.8125C14 10.5078 13.7422 10.25 13.4375 10.25H9.99219L8.84375 11.3984C8.375 11.8906 7.60156 11.8906 7.13281 11.3984L5.98438 10.25H2.5625C2.23438 10.25 2 10.5078 2 10.8125V13.4375C2 13.7656 2.23438 14 2.5625 14H13.4375C13.7422 14 14 13.7656 14 13.4375V10.8125ZM11.0938 12.875C11.0938 13.1328 10.8828 13.3438 10.625 13.3438C10.3672 13.3438 10.1562 13.1328 10.1562 12.875C10.1562 12.6172 10.3672 12.4062 10.625 12.4062C10.8828 12.4062 11.0938 12.6172 11.0938 12.875ZM12.5938 12.875C12.5938 13.1328 12.3828 13.3438 12.125 13.3438C11.8672 13.3438 11.6562 13.1328 11.6562 12.875C11.6562 12.6172 11.8672 12.4062 12.125 12.4062C12.3828 12.4062 12.5938 12.6172 12.5938 12.875Z" fill="black"/>
</svg>
