<svg width="16" height="16" viewBox="0 0 16 16" fill="none" xmlns="http://www.w3.org/2000/svg">
<path d="M8.01366 5.12074C6.56585 5.12074 5.39122 6.32269 5.39122 7.74318C5.39122 9.19098 6.56585 10.3656 8.01366 10.3656C9.43415 10.3656 10.6361 9.19098 10.6361 7.74318C10.6361 6.32269 9.43415 5.12074 8.01366 5.12074ZM14.7337 7.33342L12.1385 6.04952L13.0673 3.29049C13.1766 2.93537 12.8215 2.58025 12.4663 2.68952L9.70732 3.6183L8.42341 1.02318C8.25951 0.668055 7.74049 0.668055 7.57659 1.02318L6.29268 3.6183L3.53366 2.68952C3.17854 2.58025 2.82341 2.93537 2.93268 3.29049L3.86146 6.04952L1.26634 7.33342C0.91122 7.49732 0.91122 8.01635 1.26634 8.18025L3.86146 9.46415L2.93268 12.2232C2.82341 12.5783 3.17854 12.9334 3.53366 12.8242L6.29268 11.8954L7.57659 14.4905C7.74049 14.8456 8.25951 14.8456 8.42341 14.4905L9.70732 11.8954L12.4663 12.8242C12.8215 12.9334 13.1766 12.5783 13.0673 12.2232L12.1385 9.46415L14.7337 8.18025C15.0888 8.01635 15.0888 7.49732 14.7337 7.33342ZM10.4722 10.229C9.10634 11.5949 6.89366 11.5949 5.5278 10.229C4.16195 8.86318 4.16195 6.65049 5.5278 5.28464C6.89366 3.91879 9.10634 3.91879 10.4722 5.28464C11.838 6.65049 11.838 8.86318 10.4722 10.229Z" fill="black"/>
</svg>
