<svg width="16" height="16" viewBox="0 0 16 16" fill="none" xmlns="http://www.w3.org/2000/svg">
<path d="M10.5854 2.41491L11.1712 3.00062H6.00023C4.0322 2.80111 1.80121 5.0321 2.00073 7.00012C1.95085 7.49213 2.5086 8.04988 3.0006 8C3.49261 8.04988 4.05035 7.49213 4.00048 7.00012C3.90072 6.01611 5.01621 4.90062 6.00023 5.00037H11.1712L10.5854 5.58609C10.2023 5.89872 10.2023 6.68749 10.5854 7.00012C10.8981 7.38329 11.6868 7.38329 11.9995 7.00012L14.2921 4.70752C14.6753 4.39489 14.6753 3.60611 14.2921 3.29348L11.9995 1.00087C11.6868 0.617704 10.8981 0.617704 10.5854 1.00087C10.2023 1.31351 10.2023 2.10228 10.5854 2.41491Z" fill="black"/>
<path d="M5.56739 10.4139C5.95055 10.1013 5.95055 9.31251 5.56739 8.99988C5.25476 8.61671 4.46598 8.61671 4.15335 8.99988L1.86074 11.2925C1.47757 11.6051 1.47757 12.3939 1.86074 12.7065L4.15335 14.9991C4.46598 15.3823 5.25476 15.3823 5.56739 14.9991C5.95055 14.6865 5.95055 13.8977 5.56739 13.5851L4.98167 12.9994H9.99976C11.9678 13.1989 14.1988 10.9679 13.9993 8.99988C14.0491 8.50787 13.4914 7.95012 12.9994 8C12.5074 7.95012 11.9496 8.50787 11.9995 8.99988C12.0993 9.98389 10.9838 11.0994 9.99976 10.9996H4.98167L5.56739 10.4139Z" fill="black"/>
</svg>
