<svg width="16" height="16" viewBox="0 0 16 16" fill="none" xmlns="http://www.w3.org/2000/svg">
<path d="M5.85714 13.9688C6.55357 13.9688 7.14286 13.4062 7.14286 12.683V3.25446C7.14286 2.55804 6.55357 1.96875 5.85714 1.96875H3.28571C2.5625 1.96875 2 2.55804 2 3.25446V12.683C2 13.4062 2.5625 13.9688 3.28571 13.9688H5.85714ZM14 12.683V3.25446C14 2.55804 13.4107 1.96875 12.7143 1.96875H10.1429C9.41964 1.96875 8.85714 2.55804 8.85714 3.25446V12.683C8.85714 13.4062 9.41964 13.9688 10.1429 13.9688H12.7143C13.4107 13.9688 14 13.4062 14 12.683Z" fill="black"/>
</svg>
