<svg width="16" height="16" viewBox="0 0 16 16" fill="none" xmlns="http://www.w3.org/2000/svg">
<path d="M14.7812 10.5937L12.5938 8.40625C12.1836 7.99609 11.5 8.26953 11.5 8.87109V9.9375H10.625L9.17578 8.40625L7.69922 9.96484L9.64062 12.043C9.69531 12.0977 9.77734 12.125 9.88672 12.125H11.5V13.2187C11.5 13.8203 12.1836 14.0937 12.5938 13.6836L14.7812 11.4961C15.0547 11.25 15.0547 10.8398 14.7812 10.5937ZM1.32812 5.5625H3.625L5.04688 7.12109L6.52344 5.5625L4.58203 3.48437C4.52734 3.42969 4.44531 3.375 4.33594 3.375H1.32812C1.13672 3.375 1 3.53906 1 3.70312V5.23437C1 5.42578 1.13672 5.5625 1.32812 5.5625ZM11.5 5.5625V6.65625C11.5 7.25781 12.1836 7.53125 12.5938 7.12109L14.7812 4.93359C15.0547 4.6875 15.0547 4.27734 14.7812 4.03125L12.5938 1.84375C12.1836 1.43359 11.5 1.70703 11.5 2.30859V3.375H9.88672C9.77734 3.375 9.69531 3.42969 9.64062 3.48437L3.625 9.9375H1.32812C1.13672 9.9375 1 10.1016 1 10.2656V11.7969C1 11.9883 1.13672 12.125 1.32812 12.125H4.33594C4.44531 12.125 4.52734 12.0977 4.58203 12.043L10.625 5.5625H11.5Z" fill="black"/>
</svg>
