<?xml version="1.0" encoding="UTF-8" standalone="no"?>
<svg
   xmlns:dc="http://purl.org/dc/elements/1.1/"
   xmlns:cc="http://creativecommons.org/ns#"
   xmlns:rdf="http://www.w3.org/1999/02/22-rdf-syntax-ns#"
   xmlns:svg="http://www.w3.org/2000/svg"
   xmlns="http://www.w3.org/2000/svg"
   xmlns:sodipodi="http://sodipodi.sourceforge.net/DTD/sodipodi-0.dtd"
   xmlns:inkscape="http://www.inkscape.org/namespaces/inkscape"
   width="63"
   height="89"
   viewBox="0 0 63 89"
   fill="none"
   version="1.1"
   id="svg4"
   sodipodi:docname="prev.svg"
   inkscape:version="0.92.3 (2405546, 2018-03-11)">
  <metadata
     id="metadata10">
    <rdf:RDF>
      <cc:Work
         rdf:about="">
        <dc:format>image/svg+xml</dc:format>
        <dc:type
           rdf:resource="http://purl.org/dc/dcmitype/StillImage" />
        <dc:title></dc:title>
      </cc:Work>
    </rdf:RDF>
  </metadata>
  <defs
     id="defs8" />
  <sodipodi:namedview
     pagecolor="#ffffff"
     bordercolor="#666666"
     borderopacity="1"
     objecttolerance="10"
     gridtolerance="10"
     guidetolerance="10"
     inkscape:pageopacity="0"
     inkscape:pageshadow="2"
     inkscape:window-width="874"
     inkscape:window-height="480"
     id="namedview6"
     showgrid="false"
     inkscape:zoom="3.2524579"
     inkscape:cx="-12.927939"
     inkscape:cy="44.5"
     inkscape:window-x="0"
     inkscape:window-y="27"
     inkscape:window-maximized="0"
     inkscape:current-layer="svg4" />
  <path
     d="M0.5 85.9062C0.5 86.6875 0.695312 87.2734 1.08594 87.6641C1.47656 88.0547 2.0625 88.25 2.84375 88.25H12.2188C12.8047 88.25 13.3906 88.0547 13.7812 87.6641C14.1719 87.2734 14.5625 86.6875 14.5625 85.9062V51.7266L52.8438 86.8828C54.0156 88.0547 55.3828 88.4453 56.9453 88.25C58.5078 88.25 60.0703 87.4688 61.2422 86.2969C62.4141 85.125 63 83.7578 63 82V7C63 5.4375 62.4141 3.875 61.2422 2.70312C60.0703 1.53125 58.5078 0.945312 56.9453 0.75C55.3828 0.75 54.0156 1.14062 52.8438 2.11719L14.5625 37.4688V3.09375C14.5625 2.50781 14.1719 1.92188 13.7812 1.53125C13.3906 1.14062 12.8047 0.75 12.2188 0.75H2.84375C2.0625 0.75 1.47656 1.14062 1.08594 1.53125C0.695312 1.92188 0.5 2.50781 0.5 3.09375V85.9062Z"
     fill="white"
     id="path2" />
</svg>
