<svg width="64" height="64" viewBox="0 0 64 64" fill="none" xmlns="http://www.w3.org/2000/svg">
<path d="M10 12.012V23C10 24.9809 12.012 27 13.9267 27H24.9809C27 27 28.5 25.9809 28.5 24C28.5 22.0191 27 20.9814 24.9809 20.9814H21.6679C25.9714 16.5431 34.3214 15.3176 39.7187 18.3322C45.3818 20.8116 49.4503 28.2057 48.5137 34.3164C48.1715 40.4891 42.6674 46.8866 36.6149 48.1464C30.7124 49.9847 22.7939 47.0656 19.4969 41.836C18.5315 40.1095 15.4244 39.5616 13.9267 40.8539C12.2001 41.8192 11.6523 44.9264 12.9445 46.4241C17.8981 54.2867 29.8212 58.6635 38.6853 55.873C47.7787 53.9572 56.0225 44.2951 56.483 35.0136C57.8433 25.8207 51.6442 14.7352 43.0998 11.0811C34.9509 6.61395 22.4028 8.57893 16.0096 15.3233L16.0115 12.012C16.0096 9.99999 15 8.5 13 8.5C11 8.5 10 10 10 12.012Z" fill="#2C3E50"/>
<path d="M35.918 24.3358L31.3984 28.4683H26.2187C25.5078 28.4683 25 28.9849 25 29.5954V36.3577C25 37.0151 25.5078 37.4847 26.2187 37.4847H31.3984L35.918 41.6642C36.6797 42.3686 38 41.899 38 40.8659V25.1341C38 24.101 36.6797 23.6314 35.918 24.3358Z" fill="#2C3E50"/>
</svg>
