<svg width="16" height="16" viewBox="0 0 16 16" fill="none" xmlns="http://www.w3.org/2000/svg">
<path d="M7.81802 5.81456L3.35355 9.5026V13.4575C3.35355 13.6759 3.5234 13.8458 3.74177 13.8458H6.45927C6.65338 13.8458 6.82322 13.6759 6.82322 13.4575V11.1282C6.82322 10.9341 7.01733 10.74 7.21144 10.74H8.7643C8.98267 10.74 9.15251 10.9341 9.15251 11.1282V13.4575C9.15251 13.6759 9.34662 13.8458 9.54073 13.8458H12.2825C12.4766 13.8458 12.6707 13.6759 12.6707 13.4575V9.47834L8.18198 5.81456C8.13345 5.76603 8.06066 5.74177 8.01213 5.74177C7.93934 5.74177 7.86655 5.76603 7.81802 5.81456ZM14.8787 8.31369L12.8648 6.63951V3.29116C12.8648 3.12132 12.7192 3 12.5737 3H11.2149C11.0451 3 10.9237 3.12132 10.9237 3.29116V5.03813L8.74003 3.24263C8.54593 3.09705 8.27903 3 8.01213 3C7.72097 3 7.45407 3.09705 7.25997 3.24263L1.12132 8.31369C1.04853 8.36222 1 8.45927 1 8.53206C1 8.60485 1.04853 8.67764 1.07279 8.72617L1.70364 9.47834C1.75217 9.55113 1.82496 9.57539 1.92201 9.57539C1.9948 9.57539 2.06759 9.55113 2.11612 9.5026L7.81802 4.81976C7.86655 4.77123 7.93934 4.74697 8.01213 4.74697C8.06066 4.74697 8.13345 4.77123 8.18198 4.81976L13.8839 9.5026C13.9324 9.55113 14.0052 9.57539 14.078 9.57539C14.175 9.57539 14.2478 9.55113 14.2964 9.47834L14.9272 8.72617C14.9757 8.67764 15 8.60485 15 8.53206C15 8.45927 14.9515 8.36222 14.8787 8.31369Z" fill="black"/>
</svg>
