<svg width="16" height="16" viewBox="0 0 16 16" fill="none" xmlns="http://www.w3.org/2000/svg">
<path d="M14.8822 5.6752C11.0089 2.10827 4.99108 2.10827 1.11778 5.6752C0.964598 5.82838 0.964598 6.04722 1.0959 6.17851L1.83992 6.92254C1.9931 7.05384 2.21193 7.07572 2.34323 6.94442C5.53816 4.01209 10.4618 4.01209 13.6568 6.94442C13.81 7.07572 14.0069 7.05384 14.1601 6.92254L14.9041 6.17851C15.0354 6.04722 15.0354 5.82838 14.8822 5.6752ZM8.01094 9.98617C7.22315 9.98617 6.61043 10.6208 6.61043 11.3867C6.61043 12.1745 7.22315 12.7872 8.01094 12.7872C8.77685 12.7872 9.41146 12.1745 9.41146 11.3867C9.41146 10.6208 8.77685 9.98617 8.01094 9.98617ZM12.4313 8.16987C9.91477 5.9378 6.08523 5.9378 3.56868 8.16987C3.4155 8.30117 3.4155 8.54188 3.5468 8.67318L4.31271 9.41721C4.444 9.5485 4.64095 9.5485 4.79413 9.43909C6.63231 7.84163 9.36769 7.84163 11.2059 9.43909C11.359 9.5485 11.556 9.5485 11.6873 9.41721L12.4532 8.67318C12.5845 8.54188 12.5845 8.30117 12.4313 8.16987Z" fill="black"/>
</svg>
