<svg width="16" height="16" viewBox="0 0 16 16" fill="none" xmlns="http://www.w3.org/2000/svg">
<path d="M14.2857 11.4286H5.28571V11C5.28571 10.7857 5.07143 10.5714 4.85714 10.5714H4C3.75893 10.5714 3.57143 10.7857 3.57143 11V11.4286H1.42857C1.1875 11.4286 1 11.6429 1 11.8571V12.7143C1 12.9554 1.1875 13.1429 1.42857 13.1429H3.57143V13.5714C3.57143 13.8125 3.75893 14 4 14H4.85714C5.07143 14 5.28571 13.8125 5.28571 13.5714V13.1429H14.2857C14.5 13.1429 14.7143 12.9554 14.7143 12.7143V11.8571C14.7143 11.6429 14.5 11.4286 14.2857 11.4286ZM14.2857 7.14286H12.1429V6.71429C12.1429 6.5 11.9286 6.28571 11.7143 6.28571H10.8571C10.6161 6.28571 10.4286 6.5 10.4286 6.71429V7.14286H1.42857C1.1875 7.14286 1 7.35714 1 7.57143V8.42857C1 8.66964 1.1875 8.85714 1.42857 8.85714H10.4286V9.28571C10.4286 9.52679 10.6161 9.71429 10.8571 9.71429H11.7143C11.9286 9.71429 12.1429 9.52679 12.1429 9.28571V8.85714H14.2857C14.5 8.85714 14.7143 8.66964 14.7143 8.42857V7.57143C14.7143 7.35714 14.5 7.14286 14.2857 7.14286ZM14.2857 2.85714H8.71429V2.42857C8.71429 2.21429 8.5 2 8.28571 2H7.42857C7.1875 2 7 2.21429 7 2.42857V2.85714H1.42857C1.1875 2.85714 1 3.07143 1 3.28571V4.14286C1 4.38393 1.1875 4.57143 1.42857 4.57143H7V5C7 5.24107 7.1875 5.42857 7.42857 5.42857H8.28571C8.5 5.42857 8.71429 5.24107 8.71429 5V4.57143H14.2857C14.5 4.57143 14.7143 4.38393 14.7143 4.14286V3.28571C14.7143 3.07143 14.5 2.85714 14.2857 2.85714Z" fill="black"/>
</svg>
