<svg width="16" height="16" viewBox="0 0 16 16" fill="none" xmlns="http://www.w3.org/2000/svg">
<path d="M11.484 3.3306C11.1937 3.11286 10.8066 3.20963 10.6372 3.49995L10.2501 4.17734C10.105 4.44346 10.1776 4.75797 10.3953 4.92731C11.4598 5.72567 12.0404 6.93531 12.0646 8.16913C12.0646 10.4674 10.2017 12.2577 8.00022 12.2577C5.7261 12.2577 3.91165 10.4432 3.93585 8.19333C3.93585 6.86273 4.56486 5.67729 5.58095 4.92731C5.79868 4.75797 5.87126 4.44346 5.7261 4.17734L5.33902 3.49995C5.16967 3.20963 4.78259 3.11286 4.49228 3.3306C2.96814 4.41927 1.97624 6.20953 2.00043 8.21752C2.00043 11.5077 4.71001 14.2173 8.00022 14.1931C11.3146 14.1931 14 11.5077 14 8.19333C14 6.18533 13.0081 4.41927 11.484 3.3306ZM8.96792 8.38687V2.58062C8.96792 2.26612 8.7018 2 8.3873 2H7.61313C7.27444 2 7.03251 2.26612 7.03251 2.58062V8.38687C7.03251 8.72556 7.27444 8.96749 7.61313 8.96749H8.3873C8.7018 8.96749 8.96792 8.72556 8.96792 8.38687Z" fill="black"/>
</svg>
