<svg width="16" height="16" viewBox="0 0 16 16" fill="none" xmlns="http://www.w3.org/2000/svg">
<path d="M2.00312 3.00299V6.24523C1.95324 6.73724 2.51099 7.29499 3.00299 7.24511H6.24523C6.73724 7.29499 7.29499 6.73724 7.24511 6.24523C7.29499 5.75323 6.73724 5.19548 6.24523 5.24536H5.41698C6.49285 4.13577 8.58034 3.8294 9.92967 4.58305C11.3455 5.20291 12.3626 7.05142 12.1284 8.57911C12.0429 10.1223 10.6668 11.7217 9.15374 12.0366C7.67811 12.4962 5.69848 11.7664 4.87423 10.459C4.63288 10.0274 3.85609 9.8904 3.48167 10.2135C3.05004 10.4548 2.91306 11.2316 3.23612 11.606C4.47452 13.5717 7.4553 14.6659 9.67133 13.9683C11.9447 13.4893 14.0056 11.0738 14.1207 8.7534C14.4608 6.45518 12.911 3.6838 10.7749 2.77028C8.73773 1.65349 5.6007 2.14474 4.00241 3.83083L4.00287 3.00299C4.05275 2.51099 3.495 1.95324 3.00299 2.00312C2.51099 1.95324 1.95324 2.51099 2.00312 3.00299Z" fill="black"/>
</svg>
