<?xml version="1.0" encoding="UTF-8" standalone="no"?>
<svg
   xmlns:dc="http://purl.org/dc/elements/1.1/"
   xmlns:cc="http://creativecommons.org/ns#"
   xmlns:rdf="http://www.w3.org/1999/02/22-rdf-syntax-ns#"
   xmlns:svg="http://www.w3.org/2000/svg"
   xmlns="http://www.w3.org/2000/svg"
   xmlns:sodipodi="http://sodipodi.sourceforge.net/DTD/sodipodi-0.dtd"
   xmlns:inkscape="http://www.inkscape.org/namespaces/inkscape"
   width="115.10571"
   height="112"
   viewBox="0 0 115.10571 112"
   fill="none"
   version="1.1"
   id="svg8"
   sodipodi:docname="alarm-clock-recurring.svg"
   inkscape:version="1.0.2 (e86c870879, 2021-01-15)">
  <metadata
     id="metadata14">
    <rdf:RDF>
      <cc:Work
         rdf:about="">
        <dc:format>image/svg+xml</dc:format>
        <dc:type
           rdf:resource="http://purl.org/dc/dcmitype/StillImage" />
        <dc:title></dc:title>
      </cc:Work>
    </rdf:RDF>
  </metadata>
  <defs
     id="defs12" />
  <sodipodi:namedview
     pagecolor="#ffffff"
     bordercolor="#666666"
     borderopacity="1"
     objecttolerance="10"
     gridtolerance="10"
     guidetolerance="10"
     inkscape:pageopacity="0"
     inkscape:pageshadow="2"
     inkscape:window-width="1920"
     inkscape:window-height="1132"
     id="namedview10"
     showgrid="false"
     inkscape:zoom="4.3303571"
     inkscape:cx="114.00176"
     inkscape:cy="51.474283"
     inkscape:window-x="0"
     inkscape:window-y="0"
     inkscape:window-maximized="1"
     inkscape:current-layer="svg8"
     fit-margin-top="0"
     fit-margin-left="0"
     fit-margin-right="0"
     fit-margin-bottom="0" />
  <g
     id="g89">
    <path
       d="m 77.4092,3.80705 c 7.1962,-5.79694 20.789,-4.797467 27.1858,1.79905 7.396,5.7969 9.595,18.99 4.797,26.9858 C 102.996,19.5987 90.8021,8.80442 77.4092,3.80705 Z"
       fill="#ffffff"
       id="path2" />
    <path
       d="M 34.6318,3.80705 C 27.4356,-1.98989 13.8427,-0.990417 7.4461,5.6061 0.0500052,11.403 -2.34873,24.5961 2.64864,32.5919 9.04526,19.5987 21.2388,8.80442 34.6318,3.80705 Z"
       fill="#ffffff"
       id="path4" />
  </g>
  <g
     id="g85"
     transform="translate(-68.977752,-26.6555)">
    <path
       id="rect16-3"
       style="fill:#ffffff;stroke-width:1.88976;stroke-linecap:round;stroke-dasharray:0, 1.88976, 3.77953, 5.66929, 7.55906, 9.44882, 11.3386, 13.2283, 15.1181, 17.0079, 18.8976, 20.7874, 22.6772, 24.5669, 26.4567"
       d="m 125.35044,50.650566 c -4.3977,0 -7.99609,3.598393 -7.99609,7.996094 v 27.984374 0.59961 0.800781 c 0.39979,1.7991 1.19903,3.197085 2.39843,4.396485 l 11.19531,11.19531 c 3.1983,3.1983 8.19625,3.1983 11.39454,0 2.9984,-3.1983 2.9984,-8.196229 0,-11.394529 l -8.99609,-8.996094 V 58.64666 c 0,-4.397701 -3.59849,-7.996094 -7.9961,-7.996094 z" />
    <path
       id="path6-6"
       style="fill:#ffffff"
       d="m 123.32422,34.638672 c -17.35444,0.161689 -36.355633,11.715169 -44.101564,27.207031 -8.995261,15.3919 -8.196533,38.379677 1.998047,53.171877 l -9.994141,9.99414 c -2.998414,2.5988 -2.998414,8.79653 0,11.39453 2.59863,2.999 8.795932,2.999 11.394532,0 l 9.394531,-9.39648 c 16.391405,15.392 49.374225,15.392 65.765625,0 l 9.39453,9.39648 c 2.5988,2.999 8.79653,2.999 11.39453,0 3.199,-2.598 3.199,-8.99573 0,-11.39453 l -9.99609,-9.99414 c 6.56496,-9.39703 9.3006,-22.355223 7.97266,-34.503908 l -8.23047,2.189453 c 0.11697,1.300966 0.19727,2.611943 0.19726,3.943359 1.8e-4,24.047116 -19.4939,43.541196 -43.54101,43.541016 -24.04711,1.8e-4 -43.541195,-19.49391 -43.541019,-43.541016 -3.13e-4,-23.990784 19.405839,-43.46156 43.396479,-43.541015 0.0482,-8e-5 0.0964,-8e-5 0.14454,0 14.67358,-1.12e-4 27.63519,7.270212 35.52343,18.392578 l 8.23047,-2.992188 c -8.78389,-14.262745 -27.20199,-24.402774 -43.72851,-23.845703 -0.55596,-0.01874 -1.11401,-0.0267 -1.67383,-0.02148 z" />
    <path
       style="fill:#ffffff;stroke:none;stroke-width:0.528597px;stroke-linecap:butt;stroke-linejoin:miter;stroke-opacity:1"
       d="m 170.74731,67.370783 -9.83148,18.797493 c 7.72254,-0.766827 15.4451,-1.533655 23.16763,-2.300481 z"
       id="path70"
       sodipodi:nodetypes="cccc" />
  </g>
</svg>
