<svg width="112" height="112" viewBox="0 0 112 112" fill="none" xmlns="http://www.w3.org/2000/svg">
<path d="M77.4092 3.80705C84.6054 -1.98989 98.1982 -0.990417 104.595 5.6061C111.991 11.403 114.19 24.5961 109.392 32.5919C102.996 19.5987 90.8021 8.80442 77.4092 3.80705Z" fill="white"/>
<path d="M34.6318 3.80705C27.4356 -1.98989 13.8427 -0.990417 7.4461 5.6061C0.0500052 11.403 -2.34873 24.5961 2.64864 32.5919C9.04526 19.5987 21.2388 8.80442 34.6318 3.80705Z" fill="white"/>
<path d="M109.592 98.3572L99.5975 88.3625C109.792 73.7702 110.792 50.5824 101.596 35.1905C93.8005 19.1989 73.8111 7.40517 56.0205 8.00485C38.2298 7.40517 18.2404 19.1989 10.2446 35.1905C1.24934 50.5824 2.04892 73.5703 12.2435 88.3625L2.24881 98.3572C-0.749605 100.956 -0.749605 107.153 2.24881 109.751C4.84744 112.75 11.0442 112.75 13.6428 109.751L23.0378 100.356C39.4292 115.748 72.4118 115.748 88.8032 100.356L98.1982 109.751C100.797 112.75 106.994 112.75 109.592 109.751C112.791 107.153 112.791 100.756 109.592 98.3572ZM73.0115 76.9685C69.8132 80.1668 64.8158 80.1668 61.6175 76.9685L50.4234 65.7744C49.224 64.575 48.4245 63.1758 48.0247 61.3767C48.0247 61.1768 48.0247 60.777 48.0247 60.5771C48.0247 60.3772 48.0247 60.1773 48.0247 59.9774V31.9922C48.0247 27.5945 51.6228 23.9964 56.0205 23.9964C60.4181 23.9964 64.0162 27.5945 64.0162 31.9922V56.5792L73.0115 65.5745C76.0099 68.7728 76.0099 73.7702 73.0115 76.9685Z" fill="white"/>
</svg>
