<svg width="288" height="288" viewBox="0 0 288 288" fill="none" xmlns="http://www.w3.org/2000/svg">
<path fill-rule="evenodd" clip-rule="evenodd" d="M144 288C223.529 288 288 223.529 288 144C288 64.471 223.529 0 144 0C64.471 0 0 64.471 0 144C0 223.529 64.471 288 144 288ZM214.656 93.8438L164.031 144L214.656 194.625C217.469 197.438 217.469 202.594 214.656 205.406L202.938 217.125C200.125 219.938 194.969 219.938 192.156 217.125L142 166.5L91.375 217.125C88.5625 219.938 83.4062 219.938 80.5938 217.125L68.875 205.406C66.0625 202.594 66.0625 197.438 68.875 194.625L119.5 144L68.875 93.8438C66.0625 91.0312 66.0625 85.875 68.875 83.0625L80.5938 71.3438C83.4062 68.5312 88.5625 68.5312 91.375 71.3438L142 121.969L192.156 71.3438C194.969 68.5312 200.125 68.5312 202.938 71.3438L214.656 83.0625C217.469 85.875 217.469 91.0312 214.656 93.8438Z" fill="white"/>
</svg>
