<svg width="48" height="48" viewBox="0 0 48 48" fill="none" xmlns="http://www.w3.org/2000/svg">
<path d="M46.127 14.6352C44.9074 11.7604 43.1652 9.19056 40.9873 7.0127C38.7659 4.79129 36.196 3.09256 33.3648 1.87296C30.4029 0.609801 27.2668 0 24 0C20.7768 0 17.5971 0.653358 14.6352 1.87296C11.7604 3.049 9.19056 4.79129 7.0127 7.0127C4.79129 9.23412 3.09256 11.804 1.87296 14.6352C0.609798 17.5971 0 20.7332 0 24C0 27.2668 0.653356 30.4029 1.87296 33.3648C3.09256 36.2396 4.83484 38.8094 7.0127 40.9873C9.23412 43.2087 11.804 44.9074 14.6352 46.127C17.5971 47.3902 20.7332 48 24 48C27.2232 48 30.4029 47.3466 33.3648 46.127C36.196 44.9074 38.7659 43.1652 40.9873 40.9873C43.2087 38.7659 44.9074 36.196 46.127 33.3648C47.3902 30.4029 48 27.2668 48 24C48 20.7332 47.3902 17.5971 46.127 14.6352ZM29.2269 45.5608C27.833 43.2087 24.1742 36.6316 24.1742 31.7532C24.1742 20.5154 31.7096 30.1416 31.7096 21.1688C31.7096 19.0345 30.6642 11.5426 24.1307 9.97459C22.5191 7.84029 18.7296 5.7931 12.7187 6.62069C12.7187 6.62069 13.7205 6.92559 14.853 7.49183C14.853 7.49183 12.6751 7.79673 12.588 9.27768C12.588 9.27768 16.9002 9.05989 19.3394 9.84392C13.7205 10.5844 10.8457 13.5463 11.3684 18.9038C12.1089 26.5263 15.3321 40.1162 16.4646 44.8639C7.9274 41.8149 1.78584 33.6261 1.78584 24C1.78584 11.7604 11.7169 1.78584 24 1.78584C36.2831 1.78584 46.2142 11.7169 46.2142 24C46.1706 34.4537 38.9401 43.2087 29.2269 45.5608Z" fill="white"/>
<path fill-rule="evenodd" clip-rule="evenodd" d="M22.7808 27.6157C22.7808 24.7409 26.7009 23.8262 28.1819 23.8262C32.1891 23.8262 37.8515 21.2563 39.2454 21.2999C40.6828 21.3434 41.5975 21.9097 41.5975 22.563C41.5975 23.5213 33.5829 27.1365 30.4904 26.8316C27.5285 26.5703 26.8316 26.8752 26.8316 28.0948C26.8316 29.1402 28.9659 30.0984 31.318 30.0984C34.8461 30.0984 38.2871 28.5304 39.3325 29.2708C40.2472 29.9242 36.9368 32.2763 33.1474 32.2763C29.3579 32.2763 22.7808 30.4904 22.7808 27.6157Z" fill="#FED30A"/>
<path d="M29.7504 15.4194C28.705 14.0692 26.8321 14.0256 26.1787 15.5937C27.1805 14.8096 28.4001 14.6354 29.7504 15.4194Z" fill="#2D4F8D"/>
<path d="M18.1206 15.4632C16.6832 14.5921 14.2875 14.5049 14.4182 17.249C15.1151 15.5503 16.0734 15.2454 18.1206 15.4632Z" fill="#2D4F8D"/>
<path d="M28.8793 17.9888C28.0953 17.9888 27.4419 18.6421 27.4419 19.4262C27.4419 20.2102 28.0953 20.8635 28.8793 20.8635C29.6633 20.8635 30.3167 20.2102 30.3167 19.4262C30.3167 18.6421 29.6633 17.9888 28.8793 17.9888ZM29.402 19.339C29.1842 19.339 28.9664 19.1648 28.9664 18.9035C28.9664 18.6857 29.1406 18.4679 29.402 18.4679C29.6633 18.4679 29.8375 18.6421 29.8375 18.9035C29.794 19.1213 29.6198 19.339 29.402 19.339Z" fill="#2D4F8D"/>
<path d="M17.7284 18.7734C16.8137 18.7734 16.0732 19.5139 16.0732 20.4286C16.0732 21.3433 16.8137 22.0838 17.7284 22.0838C18.6431 22.0838 19.3836 21.3433 19.3836 20.4286C19.3836 19.5139 18.6431 18.7734 17.7284 18.7734ZM18.3382 20.2979C18.0769 20.2979 17.8591 20.0802 17.8591 19.8188C17.8591 19.5575 18.0769 19.3397 18.3382 19.3397C18.5996 19.3397 18.8173 19.5575 18.8173 19.8188C18.8173 20.0802 18.5996 20.2979 18.3382 20.2979Z" fill="#2D4F8D"/>
<path d="M14.1125 11.7168C12.0218 13.2413 11.0635 15.5934 11.3684 18.9037C12.1089 26.5262 15.3321 40.1596 16.4646 44.9074C16.8566 45.038 17.2486 45.1687 17.6407 45.2994C16.9437 42.4246 13.5898 28.3992 12.1089 17.6406C11.7169 14.7658 12.8494 13.0671 14.1125 11.7168Z" fill="#D5D7D8"/>
<path d="M19.2954 9.84352C19.4697 9.84352 19.6003 9.79997 19.6003 9.79997C17.3354 8.71104 13.7637 8.66748 12.8054 8.66748C12.7183 8.84171 12.6312 9.0595 12.6312 9.27728C12.5876 9.32084 16.8127 9.0595 19.2954 9.84352Z" fill="#D5D7D8"/>
<path d="M15.2015 7.49146C14.5046 7.01233 13.9384 6.70743 13.5899 6.5332C13.285 6.57676 13.0237 6.57676 12.7188 6.62032C12.7188 6.62032 13.7206 6.92522 14.8531 7.49146C14.8531 7.49146 14.8095 7.49146 14.7659 7.49146C15.0708 7.49146 15.2015 7.49146 15.2015 7.49146Z" fill="#D5D7D8"/>
<path d="M32.7552 36.4568C32.0147 36.2825 29.14 38.3297 28.051 39.1137C28.0075 38.896 27.9639 38.7217 27.9204 38.6346C27.7897 38.199 25.002 38.4604 24.3487 39.1573C22.6064 38.3297 19.1218 36.7181 19.0783 37.7199C18.9476 39.0266 19.0783 44.4713 19.7752 44.8633C20.2979 45.1682 23.2597 43.5566 24.7407 42.729C24.7407 42.729 24.7407 42.729 24.7842 42.729C25.6989 42.9468 27.3977 42.729 28.0075 42.337C28.0946 42.2934 28.1381 42.2063 28.1817 42.1192C29.532 42.6419 32.4503 43.6872 33.0601 43.4695C33.8441 43.2517 33.6699 36.6745 32.7552 36.4568Z" fill="#67BD47"/>
<path d="M24.7843 42.7286C23.8696 42.5544 24.1745 41.6397 24.1745 39.5054C23.9567 39.636 23.7825 39.8103 23.7825 39.9845C23.7825 42.1188 23.434 43.0771 24.3923 43.2077C25.307 43.4255 27.0057 43.2077 27.7026 42.8157C27.8333 42.7286 27.8769 42.5979 27.9204 42.3801C27.2671 42.7722 25.6554 42.9464 24.7843 42.7286Z" fill="#43A347"/>
</svg>
