<svg width="16" height="16" viewBox="0 0 16 16" fill="none" xmlns="http://www.w3.org/2000/svg">
<path d="M6.37178 3.3933L4.14811 5.59198H1.59964C1.24985 5.59198 1 5.86682 1 6.19162V9.78946C1 10.1393 1.24985 10.3891 1.59964 10.3891H4.14811L6.37178 12.6128C6.74655 12.9875 7.39616 12.7377 7.39616 12.188V3.81805C7.39616 3.26838 6.74655 3.01853 6.37178 3.3933ZM12.1933 2.09408C11.9184 1.91919 11.5437 1.99414 11.3438 2.26898C11.1689 2.5688 11.2439 2.94357 11.5187 3.11847C13.1927 4.19282 14.1671 6.04171 14.1671 8.01553C14.1671 9.96436 13.1927 11.8132 11.5187 12.8876C11.2439 13.0625 11.1689 13.4373 11.3438 13.7371C11.5187 13.9869 11.8935 14.0869 12.1933 13.912C14.1921 12.5878 15.3914 10.3891 15.3914 7.99054C15.3914 5.61697 14.1921 3.41829 12.1933 2.09408ZM12.9928 7.99054C12.9928 6.41649 12.1683 4.96736 10.8441 4.09288C10.5693 3.91799 10.1945 3.99294 10.0196 4.29276C9.84469 4.5676 9.91965 4.94237 10.1945 5.11727C11.1939 5.74189 11.7935 6.84123 11.7935 7.99054C11.7935 9.16484 11.1939 10.2642 10.1945 10.8888C9.91965 11.0637 9.84469 11.4385 10.0196 11.7133C10.1695 11.9881 10.5443 12.0881 10.8441 11.9132C12.1683 11.0387 12.9928 9.58958 12.9928 7.99054ZM9.44493 6.09168C9.14511 5.91679 8.79532 6.01673 8.62043 6.31655C8.47052 6.61637 8.57046 6.96616 8.87028 7.14105C9.1701 7.31595 9.39496 7.64075 9.39496 7.99054C9.39496 8.36532 9.1701 8.69012 8.87028 8.86502C8.57046 9.03991 8.47052 9.3897 8.62043 9.68952C8.79532 9.98934 9.14511 10.0893 9.44493 9.91439C10.1445 9.53961 10.5942 8.79006 10.5942 7.99054C10.5942 7.21601 10.1445 6.46646 9.44493 6.09168Z" fill="black"/>
</svg>
