<svg width="74" height="48" viewBox="0 0 74 48" fill="none" xmlns="http://www.w3.org/2000/svg">
<path d="M56.1815 0V1.28046C54.4926 1.58043 53.2142 2.11108 52.3463 2.87239C51.103 4.00293 49.6371 5.73328 48.6754 8.06345L29.1086 48H27.8067L8.16359 7.54434C7.24875 5.46796 6.00504 4.19903 5.62973 3.73756C5.0433 3.02239 4.32199 2.46291 3.46581 2.05912C2.60961 1.65542 1.45434 1.39586 0 1.28046V0H19.1133V1.28046C16.9083 1.48815 15.8571 1.85729 15.2003 2.38789C14.5435 2.91857 14.2151 3.59918 14.2151 4.42971C14.2151 5.58332 14.7546 7.38288 15.8336 9.82841L30.3401 37.341L44.5235 10.1745C45.6259 7.49824 46.5406 5.64099 46.5406 4.60274C46.5406 3.93371 46.2005 3.29348 45.5202 2.68205C44.8399 2.0707 44.0702 1.63811 42.4517 1.38428C42.3344 1.36126 42.135 1.32665 41.8535 1.28046V0H56.1815Z" fill="white"/>
<path d="M73.0098 0V1.28046C71.3209 1.58043 70.0425 2.11108 69.1746 2.87239C67.9313 4.00293 66.4654 5.73328 65.5037 8.06345L48.3315 48H47.0296L28.8831 7.54434C27.9682 5.46796 26.7245 4.19903 26.3492 3.73756C25.7628 3.02239 25.0415 2.46291 24.1853 2.05912C23.3291 1.65542 22.5535 1.39586 21.0991 1.28046V0H39.8328V1.28046C37.6278 1.48815 36.5765 1.85729 35.9197 2.38789C35.2629 2.91857 34.9345 3.59918 34.9345 4.42971C34.9345 5.58332 35.474 7.38288 36.5531 9.82841L49.563 37.341L61.3518 10.1745C62.4542 7.49824 63.3689 5.64099 63.3689 4.60274C63.3689 3.93371 63.0288 3.29348 62.3486 2.68205C61.6682 2.0707 60.5188 1.63811 58.9003 1.38428C58.783 1.36126 58.5836 1.32665 58.3022 1.28046V0H73.0098Z" fill="white"/>
</svg>
